SplineFontDB: 2.0
FontName: BenthamRegular
FullName: Bentham
FamilyName: Bentham
Weight: Regular
Copyright: This font drawn by, and copyright, Ben Weiner, 1999-2000. Modifications for version 2.0 copyright Ben Weiner, 2008. Licensed under the Open Font License (http://scripts.sil.org/OFL). See accompanying license and FONTLOG. 
Version: 002.000
ItalicAngle: 0
UnderlinePosition: -133
UnderlineWidth: 20
Ascent: 750
Descent: 250
NeedsXUIDChange: 1
UniqueID: 4242443
FSType: 0
OS2Version: 0
OS2_WeightWidthSlopeOnly: 0
OS2_UseTypoMetrics: 0
CreationTime: 1194201199
ModificationTime: 1209256722
OS2TypoAscent: 0
OS2TypoAOffset: 1
OS2TypoDescent: 0
OS2TypoDOffset: 1
OS2TypoLinegap: 90
OS2WinAscent: 0
OS2WinAOffset: 1
OS2WinDescent: 0
OS2WinDOffset: 1
HheadAscent: 0
HheadAOffset: 1
HheadDescent: 0
HheadDOffset: 1
Lookup: 4 0 1 "'liga' Standard Ligatures lookup 0"  {"'liga' Standard Ligatures lookup 0 subtable"  } ['liga' ('grek' <'dflt' > 'latn' <'dflt' > ) ]
DEI: 0
LangName: 1033 
Encoding: UnicodeFull
UnicodeInterp: none
NameList: Adobe Glyph List
DisplaySize: -96
AntiAlias: 1
FitToEm: 1
WinInfo: 88 8 5
BeginPrivate: 0
EndPrivate
Grid
550.5 1250 m 0
 550.5 -750 l 0
EndSplineSet
BeginChars: 1114113 315
StartChar: brokenbar
Encoding: 166 166 7
Width: 302
Flags: W
Validated: 1
VStem: 124 54<-150 205 376 717>
Fore
124 717 m 1
 178 717 l 1
 178 376 l 1
 124 376 l 1
 124 717 l 1
178 205 m 1
 178 -150 l 1
 124 -150 l 1
 124 205 l 1
 178 205 l 1
EndSplineSet
EndChar
StartChar: minus
Encoding: 8722 8722 8
Width: 500
Flags: W
Validated: 1
HStem: 201 60<45 464>
VStem: 45 419<201 261 201 261 201 201>
Fore
45 261 m 1
 464 261 l 1
 464 201 l 1
 45 201 l 1
 45 261 l 1
EndSplineSet
EndChar
StartChar: multiply
Encoding: 215 215 9
Width: 500
Flags: W
Validated: 1
HStem: 62 338<128 381 128 128>
VStem: 85 339<104 358 104 104>
Fore
381 62 m 1
 254 189 l 1
 128 62 l 1
 85 104 l 1
 212 231 l 1
 85 358 l 1
 128 400 l 1
 254 273 l 1
 381 400 l 1
 424 358 l 1
 297 231 l 1
 424 104 l 1
 381 62 l 1
EndSplineSet
EndChar
StartChar: exclam
Encoding: 33 33 11
Width: 416
Flags: W
Validated: 1
HStem: -12 121<153.641 248.612>
VStem: 142.973 132.766<47.4443 556.966 47.4443 47.4443> 142.973 119.027<1.37871 96.1605> 155.906 119.833<510.718 578.995>
Fore
186 192 m 1xc0
 155.973 554.321 155.906 547.406 155.906 556.104 c 0x90
 155.906 578.453 185.155 584 222 584 c 0
 266.245 584 275.739 573.141 275.739 556.966 c 0
 275.739 515.17 222.031 192.214 222 192 c 1
 186 192 l 1xc0
202 109 m 0
 240 109 262 82 262 49 c 0xa0
 262 16 238 -12 205 -12 c 0
 172.593 -12 142.973 1.53613 142.973 47.4443 c 0xc0
 142.973 88.7549 163.174 109 202 109 c 0
EndSplineSet
EndChar
StartChar: quotedbl
Encoding: 34 34 12
Width: 218
Flags: W
Validated: 1
HStem: 430 200<46.0512 59 51 59 51 51>
VStem: 13 71<546.563 609.207> 133 71<548.227 609.207>
Fore
51 630 m 0
 75 630 84 608 84 591 c 0
 84 552 69 467 59 430 c 1
 54 428 47 429 46 430 c 1
 46 430 13 546 13 588 c 0
 13 624 35 630 51 630 c 0
171 630 m 0
 195 630 204 608 204 591 c 0
 204 550 188 466 178 430 c 1
 174 428 168 429 166 430 c 1
 166 430 133 546 133 588 c 0
 133 624 155 630 171 630 c 0
EndSplineSet
EndChar
StartChar: numbersign
Encoding: 35 35 13
Width: 500
Flags: W
Validated: 1
HStem: 315 305<159 319 300.564 302.225> 591 20<159 199 279 319>
VStem: 159 40<318 387 410 517 540 608> 279 40<327 395 418 525 548 617>
Fore
279 525 m 1x30
 199 520 l 1
 199 410 l 1
 279 415 l 1
 279 525 l 1x30
87 531 m 1
 159 537 l 1
 159 608 l 1
 199 611 l 1x70
 199 540 l 1
 279 545 l 1
 279 617 l 1
 319 620 l 1
 319 548 l 1
 391 554 l 1
 391 534 l 1
 319 528 l 1
 319 418 l 1
 391 424 l 1
 391 404 l 1
 319 398 l 1
 319 327 l 1
 279 324 l 1
 279 395 l 1
 199 390 l 1
 199 318 l 1
 159 315 l 1xb0
 159 387 l 1
 87 381 l 1
 87 401 l 1
 159 407 l 1
 159 517 l 1
 87 511 l 1
 87 531 l 1
EndSplineSet
EndChar
StartChar: dollar
Encoding: 36 36 14
Width: 574
Flags: W
Validated: 1
HStem: -100.586 25.6019<185.515 272.427> -16 110<173.07 220.234> 407.386 21.984<321.495 399.846>
VStem: 112 122<11.6492 76.9455> 145 68<252.689 361.791> 269.726 50.274<-175.5 -100.586 -69.9869 111.155 220.789 399.107 429.37 526.5> 388.25 76.25<-26.6222 78.7491> 430 30<312 367.776>
Fore
460 307 m 0xed
 460 272 426 231 397 231 c 0
 365 231 344 251 344 288 c 0
 344 321.136 372 334 384 334 c 0
 403 334 419 325 430 312 c 1xed
 430 378.916 367.377 404.156 320 407.386 c 1
 320 197.702 l 1
 400.886 166.922 464.5 122.761 464.5 58 c 0
 464.5 -8.84179 429.558 -85.6079 320 -98.9676 c 1
 320 -175.5 l 1
 273 -175.5 l 1
 272.573 -100.586 l 1
 211.709 -96.6825 112 -64.3845 112 28 c 0
 112 74 151.45 94 174 94 c 0
 204 94 234 69.0176 234 40 c 0xf6
 234 8 216 -16 191 -16 c 0
 180.863 -16 156 -11 142 11 c 1
 154.101 -48.9405 223.887 -72.2707 272.427 -74.9841 c 1
 271.239 133.635 l 1
 207.356 163.281 145 221.734 145 276 c 0
 145 352.165 183.928 413.298 269.566 427.083 c 1
 269 526.5 l 1
 320 526.5 l 1
 320 429.37 l 1
 371.387 424.301 460 388.23 460 307 c 0xed
270.742 220.789 m 1
 269.726 399.107 l 1
 237.71 384.573 213 352.32 213 307 c 0
 213 275.015 234.272 243.87 270.742 220.789 c 1
320 111.155 m 1
 320 -69.9869 l 1
 374.069 -53.9427 388.25 -4.59122 388.25 30.75 c 0xe6
 388.25 66.7287 360.743 90.1474 320 111.155 c 1
EndSplineSet
EndChar
StartChar: percent
Encoding: 37 37 15
Width: 500
Flags: W
Validated: 1
HStem: -40 12<331.868 420.291> 170 10<333.753 421.893> 228 11<78.8684 167.291> 437 10<80.7529 168.893>
VStem: 8 49<271.811 401.422> 189 48<272.885 402.141> 261 49<4.65327 134.422> 442 48<4.87146 134.926>
Fore
8 332 m 0
 8 406 65 447 124 447 c 0
 176 447 237 413 237 332 c 0
 237 272 180 228 123 228 c 0
 68 228 8 270 8 332 c 0
124 437 m 0
 82 437 57 393 57 332 c 0
 57 274 86 239 123 239 c 0
 162 239 189 277 189 332 c 0
 189 408 164 437 124 437 c 0
261 65 m 0
 261 139 318 180 377 180 c 0
 429 180 490 146 490 65 c 0
 490 5 433 -40 376 -40 c 0
 321 -40 261 3 261 65 c 0
377 170 m 0
 335 170 310 126 310 65 c 0
 310 7 339 -28 376 -28 c 0
 415 -28 442 10 442 65 c 0
 442 140 417 170 377 170 c 0
422 474 m 1
 453 452 l 1
 67 -88 l 1
 36 -66 l 1
 422 474 l 1
EndSplineSet
EndChar
StartChar: ampersand
Encoding: 38 38 16
Width: 613
Flags: W
Validated: 1
HStem: -11 41<185.72 314.601 487.036 572.893> 300 15<379 403.066 520.372 565> 588 22<193.533 292.058>
VStem: 27 77.097<116.149 152.664 134.071 241.767> 103 62<421.339 552.212> 316 63<437.342 562.783> 446.245 39.755<167.417 258.747> 581 20<37.283 97>
Fore
224 372 m 1xef
 293 408 316 418 316 491 c 0
 316 550 288 588 239 588 c 0
 193 588 165 538 165 483 c 0
 165 444.956 194 406 224 372 c 1xef
427 23 m 10
 389 65 l 1
 343 18 286 -11 222 -11 c 0
 165.338 -11 94.0635 3.32227 61 50 c 0
 44 74 27 87 27 152 c 1xf7
 26.9979 152.444 26.9968 152.886 26.9968 153.327 c 0
 26.9968 228.664 58.0395 266.816 115.326 311 c 0
 128.885 320.46 146.249 331.347 161 340 c 1
 134 371 103 429 103 482 c 0
 103 573 186 610 237 610 c 0
 315 610 379 581 379 503 c 1
 379 437 328.251 398.768 243 348 c 1
 268 314 330 234 415 134 c 1
 442.361 168.201 446.245 194.356 446.245 239.35 c 0
 446.245 250.122 444.714 259 434 274 c 0
 420.938 292.286 402 300 379 300 c 1
 376 315 l 1
 566 315 l 1
 565 297 l 1
 529 297 510 293 503 286 c 0
 497 280 486 262 486 237 c 0
 486 193 444 130 433 116 c 1
 457 86 l 2
 471.136 68.3311 499 29 531 29 c 0
 573 29 581 56 581 100 c 1
 601 97 l 1
 601 58 592 -10 521 -10 c 1
 470.247 -9.86035 440.292 7.33301 427 23 c 10
254 30 m 0
 305 30 329 41 372 81 c 1
 295.862 176.344 182.495 313.001 182.002 313.001 c 0
 182 313 l 1
 115.042 280.129 104.097 220.479 104.097 189.578 c 0
 104.097 156.877 116.34 127.484 138 97 c 0
 165 59 208.453 30 254 30 c 0
EndSplineSet
EndChar
StartChar: quotesingle
Encoding: 39 39 17
Width: 200
Flags: W
Validated: 1
HStem: 428.25 201.75<85.5273 94.4915 94.4915 108.306>
VStem: 70 60<537.717 613.158>
Fore
103 630 m 0
 126 630 130 608 130 591 c 0
 130 552 119 464 109 433 c 0
 108.103 430.01 104.417 428.076 101.039 428.076 c 0
 95.4238 428.076 92.4033 428.25 88 428.25 c 0
 86.1953 428.25 81.4072 431.223 81 430 c 5
 81 430 70 547 70 589 c 0
 70 625 87 630 103 630 c 0
EndSplineSet
EndChar
StartChar: parenleft
Encoding: 40 40 18
Width: 297
Flags: W
Validated: 1
VStem: 49 86<136.399 383.831>
Fore
311 716 m 1
 337 685 l 1
 289 637 216 588 177 513 c 0
 144 449 135 397 135 283 c 0
 135 185 140 73 166 8 c 0
 201 -79 272 -145 303 -169 c 1
 275 -206 l 1
 195 -152 49 37 49 254 c 0
 49 476 234 645 311 716 c 1
EndSplineSet
EndChar
StartChar: parenright
Encoding: 41 41 19
Width: 297
Flags: W
Validated: 1
VStem: 162 86<136.399 383.831>
Fore
-14 716 m 1
 63 645 248 476 248 254 c 0
 248 37 102 -152 22 -206 c 1
 -6 -169 l 1
 25 -145 96 -79 131 8 c 0
 157 73 162 185 162 283 c 0
 162 397 153 449 120 513 c 0
 81 588 8 637 -40 685 c 1
 -14 716 l 1
EndSplineSet
EndChar
StartChar: asterisk
Encoding: 42 42 20
Width: 556
Flags: W
Validated: 1
HStem: 161 374<232 264 241 248 241 241>
VStem: 213 71<165.042 273.437 411.624 532.139>
Fore
241 535 m 0
 264 535 277 516 277 499 c 0
 277 447 258 377 251 353 c 1
 251 353 206 454 206 496 c 0
 206 532 225 535 241 535 c 0
248 161 m 0
 232 161 213 164 213 200 c 0
 213 242 251 346 251 346 c 1
 257 320 284 249 284 197 c 0
 284 180 271 161 248 161 c 0
84 433 m 0
 91.6034 445.672 103.623 451.118 114.971 451.118 c 0
 121.533 451.118 127.871 449.297 133 446 c 0
 178 420 231 369 248 351 c 1
 248 351 137 362 100 383 c 0
 82.6012 393.103 77.1725 403.205 77.1725 412.6 c 0
 77.1725 419.945 80.49 426.858 84 433 c 0
411 252 m 0
 405.626 242.595 398.446 232.739 384.915 232.739 c 0
 378.303 232.739 370.175 235.092 360 241 c 0
 324 262 253 348 253 348 c 1
 279 341 353 327 398 301 c 0
 408.353 295.478 416.324 283.764 416.324 270.46 c 0
 416.324 264.488 414.718 258.196 411 252 c 0
95 248 m 0
 91.4 254 89.87 260.09 89.87 265.892 c 0
 89.87 279.43 98.2 291.4 108 297 c 0
 153 323 224 342 248 348 c 1
 248 348 183 258 146 237 c 0
 135.825 231.092 127.697 228.739 121.085 228.739 c 0
 107.554 228.739 100.374 238.595 95 248 c 0
415 441 m 0
 418.904 434.927 422.243 428.102 422.243 420.85 c 0
 422.243 411.384 416.553 401.192 399 391 c 0
 363 370 254 351 254 351 c 1
 274 370 321 428 366 454 c 0
 371.496 457.297 378.065 459.118 384.725 459.118 c 0
 396.243 459.118 408.03 453.672 415 441 c 0
EndSplineSet
EndChar
StartChar: plus
Encoding: 43 43 21
Width: 500
Flags: W
Validated: 1
HStem: 22 419<225 284> 201 60<45 224 285 464 45 464 45 45>
VStem: 225 60<22 201 261 441>
Fore
225 22 m 1xa0
 225 201 l 1
 45 201 l 1
 45 261 l 1
 224 261 l 1x60
 224 441 l 1
 284 441 l 1xa0
 284 261 l 1
 464 261 l 1
 464 201 l 1
 285 201 l 1x60
 285 22 l 1
 225 22 l 1xa0
EndSplineSet
EndChar
StartChar: comma
Encoding: 44 44 22
Width: 249
Flags: W
Validated: 1
HStem: -9 132<75.6507 135.659>
VStem: 57.9109 134.137<7.87384 99.9239>
Fore
114 -9 m 0
 83.9258 -9 57.9109 23.9403 57.9109 55.1254 c 0
 57.9109 102.359 96.9643 123 123 123 c 0
 150.66 123 192.048 95.422 192.048 45.3919 c 0
 192.048 -28.3562 132.326 -100.08 91 -105 c 1
 88.6667 -99 85.333 -89.999 85.333 -89.999 c 1
 115.333 -75.999 154 -28 156 5 c 1
 138 -6 130.667 -9 114 -9 c 0
EndSplineSet
EndChar
StartChar: hyphen
Encoding: 45 45 23
Width: 461
Flags: W
Validated: 1
HStem: 260 65<80 402 80 402 80 80>
Fore
80 325 m 1
 407 325 l 1
 402 258 l 1
 72 260 l 1
 80 325 l 1
EndSplineSet
EndChar
StartChar: period
Encoding: 46 46 24
Width: 248
Flags: W
Validated: 1
HStem: -4 132<79.5488 174.749>
VStem: 60 131<15.2614 111.524>
Fore
124 128 m 0
 151 128 191 111.042 191 63 c 0
 191 13.667 159.333 -4 124 -4 c 0
 93 -4 60 27.333 60 63 c 0
 60 106.012 97 128 124 128 c 0
EndSplineSet
EndChar
StartChar: slash
Encoding: 47 47 25
Width: 302
Flags: W
Validated: 1
VStem: 13 276<-128 695 -128 -128>
Fore
237 709 m 1
 289 695 l 1
 65 -142 l 1
 13 -128 l 1
 237 709 l 1
EndSplineSet
EndChar
StartChar: zero
Encoding: 48 48 26
Width: 500
Flags: W
Validated: 1
HStem: -16 22<177.54 304.962> 399 21<178.996 313.045>
VStem: 14 96<106.599 294.043> 373 94<104.374 295.992>
Fore
14 192 m 0
 14 338 126 420 244 420 c 0
 346 420 467 352 467 192 c 0
 467 73 355 -16 241 -16 c 0
 132 -16 14 68 14 192 c 0
244 399 m 0
 161 399 110 313 110 192 c 0
 110 77 168 6 241 6 c 0
 318 6 373 82 373 192 c 0
 373 341 322 399 244 399 c 0
EndSplineSet
EndChar
StartChar: one
Encoding: 49 49 27
Width: 500
Flags: W
Validated: 1
HStem: -2 420<108 328 267.821 328> -2 26<108 153.655 404.821 465>
VStem: 88 377<24 348 287.821 348> 238 90<35 360>
Fore
105 24 m 1x60
 159 29 238 35 238 35 c 1
 238 360 l 1x50
 96 312 l 1
 88 348 l 1x60
 328 418 l 1
 328 35 l 1x90
 350 26 425 29 465 24 c 1x60
 465 1 l 1
 425.571 3.57143 367.408 4.85714 308.222 4.85714 c 0
 229.306 4.85714 148.571 2.57143 108 -2 c 1xa0
 105 24 l 1x60
EndSplineSet
EndChar
StartChar: two
Encoding: 50 50 28
Width: 500
Flags: W
Validated: 1
HStem: 0 63<170 184.935 184.935 367.839 367.839 409> 395 21.014<165.978 289.836>
VStem: 63 123<233.287 310.729> 328 104<205.59 337.245>
Fore
230.7 416.014 m 0
 326.975 416.014 432 363.147 432 272 c 0
 432 211 396 182 312 128 c 0
 256 92 170 63 170 63 c 1
 170 63 182 62.9375 200.734 62.9375 c 0
 256.938 62.9375 373.75 63.5 409 68 c 1
 419 95 443 147 443 147 c 1
 469 147 l 1
 421 0 l 1
 52 0 l 1
 49 13 43 33 43 33 c 1
 220 112 l 2
 266 133 328 206 328 268 c 0
 328 348 291 395 232 395 c 0
 184 395 135 361 128 323 c 1
 158 321 186 304 186 266 c 0
 186 229 151 214 123 214 c 0
 98 214 63 242 63 291 c 0
 63 341.006 123.829 416.014 230.7 416.014 c 0
EndSplineSet
EndChar
StartChar: three
Encoding: 51 51 29
Width: 500
Flags: W
Validated: 1
HStem: -220 26<136.16 285.789> 205 119<149.688 197.173> 388 25<177.821 313.025>
VStem: 39 23<-143.617 -69> 87.8751 125.125<224.165 307.5> 359 100<-94.1469 51.9409> 360 78<220.977 339.532>
Fore
223 120 m 1xfc
 217 140 l 1
 242 149 254 152 276 162 c 0
 308 177 360 218 360 258 c 0
 360 333 318 388 248 388 c 0
 200 388 165 368 148 324 c 1
 178 322 213 302 213 264 c 0
 213 231 197 205 156 205 c 0
 109.997 205 87.8751 244.497 87.8751 281.236 c 0
 87.8751 335.302 160.615 413 256 413 c 0
 350 413 438 355 438 283 c 0xfa
 438 218 388 189 320 156 c 1
 375 144 459 88 459 6 c 0
 459 -137 351 -220 210 -220 c 0
 146 -220 56 -166 39 -69 c 1
 62 -63 l 1
 72 -129 131 -194 210 -194 c 0
 319 -194 359 -94 359 -21 c 0
 359 55 295 120 223 120 c 1xfc
EndSplineSet
EndChar
StartChar: four
Encoding: 52 52 30
Width: 500
Flags: W
Validated: 1
HStem: -4 25<54 275 355 391.447 391.447 419>
VStem: 275 80<-186 -96.4996 -96.4996 -96.4304 -96.4304 -4 21 31.7484 31.7484 262.746> 277 85<48.961 300>
Fore
355 -4 m 1xc0
 355 -66 356 -186 356 -186 c 1
 274 -186 l 1
 274 -186 275 -69 275 -4 c 1xc0
 40 -4 l 1
 9 25 l 1
 341 417 l 1
 362 400 l 1xa0
 362 400 354.913 171.46 354.913 42.861 c 0
 354.913 34.8235 354.941 27.1765 355 20 c 5
 379 20 408.667 20 419 20 c 1
 419 20 468 80 483 106 c 1
 498 94 l 1
 481 60 462 32 450 -5 c 1
 408 -5 411 -4 355 -4 c 1xc0
277 300 m 1xa0
 224 232 90 82 54 21 c 1
 145 21 217 21 275 21 c 1xc0
 275 142 275 263 277 300 c 1xa0
EndSplineSet
EndChar
StartChar: five
Encoding: 53 53 31
Width: 500
Flags: W
Validated: 1
HStem: -216 23<126.547 255.756> 168 30<165.524 287.421> 321 67<176 428>
VStem: 22 112<-107.094 -50.1783> 336 98<-78.2372 108.106>
Fore
430 321 m 1
 176 322 l 1
 176 322 131 184 112 136 c 1
 143 168 188 198 259 198 c 0
 366 198 434 124 434 7 c 0
 434 -112 313 -216 201 -216 c 0
 101 -216 22 -145 22 -88 c 0
 22 -55 34 -14 84 -14 c 0
 122 -14 134 -51 134 -68 c 0
 134 -100 105 -119 81 -121 c 1
 87 -161 155 -193 203 -193 c 0
 270 -193 336 -92 336 -3 c 0
 336 84 304 168 235 168 c 0
 180 168 130 141 103 88 c 1
 93 88 72 104 72 104 c 1
 167 387 l 1
 428 388 l 1
 455 448 l 1
 480 448 l 1
 430 321 l 1
EndSplineSet
EndChar
StartChar: six
Encoding: 54 54 32
Width: 500
Flags: W
Validated: 1
HStem: -22 18<193.378 316.086> 309 37<205.09 277.022 241.056 329.067> 546 18<283.727 466.476>
VStem: 32 96<102.051 280.857> 368 99<75.6241 248.281>
Fore
132 256 m 1
 171 303 209 344 275 346 c 0
 276.343 346.031 277.691 346.047 279.044 346.047 c 0
 364.285 346.047 467 283.985 467 157 c 0
 467 52 378 -22 254 -22 c 0
 163 -22 32 27 32 220 c 0
 32 336 158 564 386 564 c 0
 426 564 492 544 517 520 c 1
 504 502 l 1
 471 530 412 546 368 546 c 0
 266 546 148 459 132 256 c 1
260 309 m 0
 171 309 129 240 128 150 c 0
 128 72 182 -4 259 -4 c 0
 329 -4 368 71 368 156 c 0
 368 283 323 309 260 309 c 0
EndSplineSet
EndChar
StartChar: seven
Encoding: 55 55 33
Width: 500
Flags: W
Validated: 1
HStem: 321 78<101 271.581 271.581 383> 406 20G<442.667 482>
VStem: 66 20<228 260.392>
Fore
434 396 m 1
 460 426 l 1
 482 426 l 1
 119 -222 l 1
 80 -204 l 1
 383 317 l 1
 308 319 172 321 101 321 c 1
 86 220 l 1
 66 228 l 1
 76 399 l 1
 434 396 l 1
EndSplineSet
EndChar
StartChar: eight
Encoding: 56 56 34
Width: 500
Flags: W
Validated: 1
HStem: -18 20<178.033 316.943> 554 14<195.512 305.908>
VStem: 34 83<71.7114 218.358> 83 73.69<376.878 472.027 438.402 504.284> 345 72<374.921 508.826> 370 86<64.3865 217.682>
Fore
456 156 m 0xc4
 456 33 373 -18 242 -18 c 0
 133 -18 34 31 34 154 c 0xe4
 34 251 158 302 212 308 c 1
 164 318 83 363 83 440 c 0
 83 534 187 568 254 568 c 0
 325 568 417 536 417 440 c 0xd8
 417 358 334 316 280 310 c 1
 336 300 456 244 456 156 c 0xc4
345 438 m 0xd8
 345 504 304 554 251 554 c 0
 199 554 160 507 157 444 c 0
 156.797 440.281 156.69 436.544 156.69 432.803 c 0
 156.69 381.218 177.004 328.918 246 314 c 1
 318 328 345 381 345 438 c 0xd8
370 160 m 0xe4
 370 261 307 288 247 300 c 1
 196 292 117 276 117 159 c 0
 117 89 158 2 242 2 c 0
 341 2 370 76 370 160 c 0xe4
EndSplineSet
EndChar
StartChar: nine
Encoding: 57 57 35
Width: 500
Flags: W
Validated: 1
HStem: -232 32<70.7749 241.758> 27 21<168.06 294.538> 394 22<170.026 305.462>
VStem: 30 94<119.722 307.662> 357 102<64.8608 284.512>
Fore
357 188 m 0
 357 276.023 356 394 234 394 c 0
 159 394 124 342 124 204 c 0
 124 104 161 48 224 48 c 0
 289 48 357 98 357 188 c 0
218 27 m 0
 134 27 30 87 30 205 c 0
 30 333 111 416 238 416 c 0
 329 416 459 358 459 165 c 0
 459 -53 336 -232 127 -232 c 0
 64 -232 -9 -175 -40 -124 c 1
 -17 -98 l 1
 12 -148 83 -200 148 -200 c 0
 328 -199 357 -36 368 108 c 1
 340 65 264 27 218 27 c 0
EndSplineSet
EndChar
StartChar: colon
Encoding: 58 58 36
Width: 249
Flags: W
Validated: 1
HStem: -12 132<76.875 175.027> 264 141<75.717 172.656>
VStem: 58 134<6.73132 102.457 282.71 387.457>
Fore
123 405 m 0
 150 405 192 391.041 192 342 c 0
 192 298 168 264 119 264 c 0
 78 264 58 302 58 339 c 0
 58 383.011 96 405 123 405 c 0
123 120 m 0
 150 120 192 106.041 192 57 c 0
 192 12 162 -12 119 -12 c 0
 88 -12 58 22 58 54 c 0
 58 98.0114 96 120 123 120 c 0
EndSplineSet
EndChar
StartChar: semicolon
Encoding: 59 59 37
Width: 249
Flags: W
Validated: 1
HStem: -6 132<79.0523 137.519> 260 141<71.8064 173.855>
VStem: 58 134<14.8054 103.523 278.036 381.443>
Fore
119 -6 m 0
 88 -6 58 34 58 60 c 0
 58 103.012 96 126 123 126 c 0
 150 126 192 100.041 192 51 c 0
 192 -24 136 -81 94 -86 c 1
 94.2 -85.4 94.29 -84.75 94.29 -84.066 c 0
 94.29 -77.91 87 -69 87 -69 c 1
 118 -62 154 -25 156 7 c 1
 144 0 134 -6 119 -6 c 0
123 401 m 0
 150 401 192 387.041 192 338 c 0
 192 292 168 260 119 260 c 0
 70 260 53 296 53 336 c 0
 53 379.046 96 401 123 401 c 0
EndSplineSet
EndChar
StartChar: less
Encoding: 60 60 38
Width: 499
Flags: W
Validated: 1
HStem: -3 439<377 388 388 388>
VStem: 61 327<208 436 208 208>
Fore
388 436 m 1
 388 415 l 1
 170 230 l 1
 170 213 l 1
 377 24 l 1
 377 -3 l 1
 61 208 l 1
 61 240 l 1
 388 436 l 1
EndSplineSet
EndChar
StartChar: equal
Encoding: 61 61 39
Width: 500
Flags: W
Validated: 1
HStem: 121 60<45 464> 271 60<45 464>
VStem: 45 419<121 181 271 331 121 331 121 121>
Fore
45 331 m 1
 464 331 l 1
 464 271 l 1
 45 271 l 1
 45 331 l 1
45 181 m 1
 464 181 l 1
 464 121 l 1
 45 121 l 1
 45 181 l 1
EndSplineSet
EndChar
StartChar: greater
Encoding: 62 62 40
Width: 499
Flags: W
Validated: 1
HStem: -3 439<61 72 61 61>
VStem: 61 327<230 436 436 436>
Fore
61 436 m 1
 388 230 l 1
 388 198 l 1
 72 -3 l 1
 72 24 l 1
 279 203 l 1
 279 220 l 1
 61 415 l 1
 61 436 l 1
EndSplineSet
EndChar
StartChar: question
Encoding: 63 63 41
Width: 500
Flags: W
Validated: 1
HStem: -21 113<216.49 309.695> 162 20<225.792 330.829> 406 112<126 176.04> 612 21<172.828 288.124>
VStem: 61 128<425.341 506.237> 162 53<202.249 295.328> 206 115<-10.2379 81.6216> 334 94.006<416.92 552.675>
Fore
372 266 m 1xf5
 394 252 l 1
 382 220 350 162 266 162 c 0
 226 162 162 202 162 250 c 0
 162 298 184 322 215 341 c 0xf5
 261 370 334 406 334 482 c 0
 334 562 289 612 224 612 c 0
 176 612 132 553 126 518 c 1
 156 516 189 504 189 466 c 0
 189 433 167 406 126 406 c 0
 78 406 61 454 61 484 c 0xf9
 61 530 126 633 231 633 c 0
 299.734 633 428.006 599.262 428.006 475.442 c 0
 428.006 326.955 215 351.762 215 247 c 4
 215 206.988 233 182 268 182 c 0
 325 182 358 224 372 266 c 1xf5
206 36 m 0xf3
 206 72 231 92 265 92 c 0
 299 92 321 72 321 36 c 0
 321 0 296 -21 262 -21 c 0
 228 -21 206 0 206 36 c 0xf3
EndSplineSet
EndChar
StartChar: at
Encoding: 64 64 42
Width: 594
Flags: W
Validated: 1
HStem: -132 26<208.69 416.495> -7 48<258.673 336.147> 275 17<283.851 395.01> 386 22<243.133 450.271>
VStem: 49 68<19.624 232.386> 171 76<50.941 211.845> 546 28<99.8405 280.637>
Fore
445 2 m 0
 397 -4 375 -7 375 -7 c 1
 375 -7 381 30 388 66 c 1
 368 43 333 -7 272 -7 c 0
 214 -7 171 37 171 121 c 0
 171 253 273 292 317 292 c 0
 362 292 393 281 414 263 c 1
 418 292 l 1
 485 292 l 1
 469 183 467 155 453 34 c 1
 487 38 546 73 546 178 c 0
 546 246 540 386 337 386 c 0
 178 386 117 241 117 134 c 0
 117 4 147 -106 313 -106 c 0
 421 -106 455 -58 485 -26 c 1
 505 -54 l 1
 463 -86 439 -132 311 -132 c 0
 154 -132 49 -14 49 120 c 0
 49 307 201 408 347 408 c 0
 509 408 574 284 574 180 c 0
 574 107 509 10 445 2 c 0
393 96 m 1
 399 138 413 242 413 242 c 1
 393 255 363 275 323 275 c 0
 284 275 247 218 247 132 c 0
 247 70 258 41 301 41 c 0
 342 41 380 73 393 96 c 1
EndSplineSet
EndChar
StartChar: A
Encoding: 65 65 43
Width: 690
Flags: W
Validated: 1
HStem: -5 19.9832<-7.51019e-06 0.830399 0.830399 27.8607 163.129 191 422.005 446.172 446.172 466.542> 270 23<234 411> 597 20G<325.928 375.442>
Fore
419 270 m 1
 223 270 l 1
 130 52 l 1
 128.272 48.4846 127.489 45.239 127.489 42.2489 c 0
 127.489 20.1466 170.3 12 191 12 c 1
 192 -4 l 1
 0 -5 l 1
 0 15 l 1
 0.547326 14.9888 1.10125 14.9832 1.6614 14.9832 c 0
 24.5026 14.9832 57.6952 24.3054 76 46 c 0
 103 78 335 617 335 617 c 1
 367 617 l 1
 581 110 l 2
 608.228 45.4922 627 36 641 29 c 0
 661 19 680 23 690 21 c 1
 688 -3 l 1
 652.172 -1.32055 596.6 0.0455044 541.284 0.0455044 c 0
 497.79 0.0455044 454.454 -0.799082 421 -3 c 1
 422 16 l 1
 422 16 429.108 14.9414 438.913 14.9414 c 0
 454.321 14.9414 476.389 17.5556 488 31 c 0
 492.898 36.7627 494.642 44.601 494.642 52.8403 c 0
 494.642 73.1962 484 96 484 96 c 1
 419 270 l 1
234 293 m 1
 411 293 l 1
 324 504 l 1
 234 293 l 1
EndSplineSet
EndChar
StartChar: B
Encoding: 66 66 44
Width: 570
Flags: W
Validated: 1
HStem: -1 18.9254<235.345 375.779> 310 26<230 286> 602 21<230.193 255.588 255.588 310.041>
VStem: 128.444 101.556<28.4028 242.357 242.357 310 336 509.598 509.598 595.33> 392 88<393.29 467.774 430.532 544.277> 426.06 97.94<86.979 242.719>
Fore
230 602 m 1xf8
 230 336 l 5
 294 340 l 6
 384 346 391 421 392 467 c 4
 392 516 366 574 317 598 c 0
 306.88 602.84 294.437 604.195 281.204 604.195 c 0
 264.361 604.195 246.24 602 230 602 c 1xf8
524 158 m 4xf4
 524 92.3414 466.598 -3.00775 307.49 -3.00775 c 0
 282.041 -3.00775 205.694 -1 53 -1 c 1
 53 15 l 1
 53 15 123 23 128 47 c 1
 128 150.333 128.444 315.444 128.444 438.63 c 4
 128.444 500.222 128.333 551.333 128 579 c 1
 125 596 66 607 66 607 c 1
 66 624 l 1
 171 624 255 623 315 623 c 0
 385.629 623 480.008 566.594 480.008 468.548 c 4
 480.008 468.033 480.005 467.517 480 467 c 4xf8
 479 405 435 329 345 326 c 5
 450 316 524 268 524 158 c 4xf4
228 310 m 5
 229 66 l 2
 229 18.89 244.587 17.9254 271.586 17.9254 c 0
 380.089 17.9254 426.06 54.9466 426.06 149.038 c 4xf4
 426.06 277.008 346.197 303.544 293 309 c 6
 228 310 l 5
EndSplineSet
EndChar
StartChar: C
Encoding: 67 67 45
Width: 680
Flags: W
Validated: 1
HStem: -22 30<297.364 493.251> 599 27<293.029 492.805>
VStem: 54 129<172.992 423.681> 591 31<577.861 633>
Fore
386 626 m 0
 468 626 542 595 561 572 c 1
 586 588 586 600 591 633 c 1
 622 633 l 1
 619 431 l 1
 619 431 610 431 600 431 c 1
 584 532 515 599 378 599 c 0
 244.469 599 186.115 475.983 183 306 c 0
 183 157 222 8 392 8 c 0
 525 8 572 88 611 180 c 1
 611 180 624 169 634 162 c 1
 597 73 532 -22 390 -22 c 0
 200 -22 54 88 54 299 c 0
 54 554 259 626 386 626 c 0
EndSplineSet
EndChar
StartChar: D
Encoding: 68 68 46
Width: 656
Flags: W
Validated: 1
HStem: -1 16<48 118.364 246.338 414.767> 589.424 26.576<231.291 403.208> 597 17<61 124.286>
VStem: 134 95<32.1914 60 60 101.843 101.843 318.012 318.012 536.944 536.944 585.447> 514 106<182.666 286.167 233.02 422.095>
Fore
620 289 m 0xd8
 620 153.427 524.601 -3.00475 303.117 -3.00475 c 0
 277.605 -3.00475 201.07 -1 48 -1 c 1
 48 15 l 1
 96 19 129 34 134 60 c 1
 134 552 l 2
 132 590 92 593 61 597 c 1
 61 614 l 1xb8
 166 614 268 616 328 616 c 0
 445.167 616 620 538 620 289 c 0xd8
514 283 m 0
 514.01 285.121 514.015 287.232 514.015 289.334 c 0
 514.015 480.691 472.555 589.424 289.548 589.424 c 0xd8
 270.874 589.424 250.727 588.292 229 586 c 1
 229.211 567.615 229.289 536.279 229.289 497.758 c 0
 229.289 392.517 228.711 233.649 228.711 138.742 c 0
 228.711 104.003 228.789 77.8341 229 66 c 0
 229 42 250 18 282 18 c 0
 473 18 512 97 514 283 c 0
EndSplineSet
EndChar
StartChar: E
Encoding: 69 69 47
Width: 570
Flags: W
Validated: 1
HStem: 0 20<48 61.4391 61.4391 104.819 234.431 440.397> 0 148<488 501 48 510 696.431 902.397> 301 22<229 408.433> 380 20G<421 445> 589 22<232.018 414.67> 597 17<61 129.178>
VStem: 128 101<22.2808 38 38 84.9577> 136.61 92.39<138.616 301 323 570.538> 426 19<225 286.342 333.608 400>
Fore
501 0 m 1x7280
 48 0 l 1
 48 16 l 1
 48 16 72.3613 15 75 15 c 0
 90.8311 15 123.714 17.4286 128 38 c 0xb280
 133.126 69.397 136.61 269.126 136.61 415.155 c 0
 136.61 497.027 135.515 562.019 133 571 c 0
 130 588 61 597 61 597 c 1
 61 614 l 1xb580
 130 612 212.75 611 291.625 611 c 0x3980
 370.5 611 445.5 612 499 614 c 1x3580
 502 473 l 1
 483 473 l 1
 475 509 448 589 382 589 c 2
 229 589 l 1
 229 323 l 1
 373 323 l 2
 410 323 420 364 422 400 c 1
 445 400 l 1
 445 225 l 1
 426 225 l 1
 423 272 404 301 370 301 c 2
 229 301 l 1x3980
 229 67 l 2
 229 43 237 20 263 20 c 0
 350 20 410 20 410 20 c 2xba80
 444 22 482 93 488 148 c 1
 510 148 l 1
 501 0 l 1x7280
EndSplineSet
EndChar
StartChar: F
Encoding: 70 70 48
Width: 550
Flags: W
Validated: 1
HStem: -4 16<48 78.8894 78.8894 89.6107 234.906 273.3 273.3 277.262 277.262 309.919> 301 22<229 398.433> 380 20G<411 435> 589 20.5<231.139 414.432> 597 17<61 128.511>
VStem: 48 454<-4 473 -70.3921 -4> 128 101<19.2843 34 34 125.257> 136.152 92.848<179.085 301 323 570.442> 416 19<225 286.342 333.608 400>
Fore
310 -4 m 1xf2
 277.5 -1.5 232.5 -0.25 185.375 -0.25 c 0
 138.25 -0.25 89 -1.5 48 -4 c 1
 48 12 l 1xf4
 67 12 126.5 16 128 34 c 0xf2
 130.115 59.3769 136.152 281.812 136.152 432.996 c 0
 136.152 504.349 135.244 559.778 133 571 c 0
 130 588 61 597 61 597 c 1
 61 614 l 1xe9
 129 611 211.75 609.5 290.875 609.5 c 0xf1
 370 609.5 445.5 611 499 614 c 1
 502 473 l 1xec
 483 473 l 1
 475 509 448 589 382 589 c 2
 229 589 l 1
 229 323 l 1
 363 323 l 2
 400 323 410 364 412 400 c 1
 435 400 l 1
 435 225 l 1
 416 225 l 1
 413 272 394 301 360 301 c 2
 229 301 l 1xf180
 229 63 l 2
 229 39 237.143 17.7218 263 15 c 0
 269.333 14.3333 276.667 14.1111 283.63 14.1111 c 0
 297.556 14.1111 310 15 310 15 c 1
 310 13.7327 309.947 7.39794 309.947 2.19074 c 0
 309.947 -0.412861 309.96 -2.73457 310 -4 c 1xf2
EndSplineSet
EndChar
StartChar: G
Encoding: 71 71 49
Width: 730
Flags: W
Validated: 1
HStem: -22 32<291.956 470.882> 247 22<448 533.88> 599 28<292.096 483.996>
VStem: 50 128<166.585 423.215> 543.464 92.376<86.9014 219.947> 599 25<570.192 623>
Fore
393 627 m 0xf8
 472 627 537 574 562 558 c 1
 582 567 596 598 599 623 c 1
 624 623 l 1xf4
 621 421 l 1
 621 421 601 421 591 421 c 1
 575 522 524 599 390 599 c 0
 262 599 178 523 178 288 c 0
 178 147 238 10 377 10 c 0
 440 10 508 41 540 86 c 1
 541.732 105.053 543.464 135.438 543.464 164.648 c 0
 543.464 186.032 542.536 206.785 540 222 c 1
 507 241 480 245 448 247 c 1
 448 269 l 1
 709 269 l 1
 709 247 l 1
 682 244 653 238 640 222 c 1
 636.8 215.6 635.84 178.32 635.84 135.888 c 0
 635.84 72.24 638 -2.99999 638 -3 c 1
 621 -3 l 1
 621 -3 608 60 556 60 c 1
 529 19 451 -22 376 -22 c 0
 188 -22 50 96 50 289 c 0
 50 550 243 627 393 627 c 0xf8
EndSplineSet
EndChar
StartChar: H
Encoding: 72 72 50
Width: 738
Flags: W
Validated: 1
HStem: -1 16<58 59.7802 59.7802 98.7695 263.603 280.164 280.164 303 427 450.539 450.539 466.397 635.166 649.506 649.506 679.951 679.951 682> 301 22<229 501> 597 14<71 112.772 270.025 305 436 465.479 618.849 669>
VStem: 134.332 94.668<21.8776 34 34 154.881 154.881 301 323 531.467 531.467 584.563> 501 95.234<21.6445 34 34 114.159 114.159 301 323 524.663 524.663 585.655>
Fore
500 570 m 2
 500 588 457 593 436 594 c 1
 434 608 l 1
 457.333 606.667 486.333 606.111 516.259 606.111 c 0
 576.111 606.111 639.667 608.333 669 611 c 1
 669 597 l 1
 669 597 599 588 597 571 c 0
 596.483 565.058 596.234 528.148 596.234 476.203 c 0
 596.234 327.075 598.292 54.0247 602 34 c 0
 605.429 13.4286 661.755 11.9592 677.778 11.9592 c 0
 680.449 11.9592 682 12 682 12 c 1
 684 -1 l 1
 652.98 1.38613 606.93 2.63353 560.52 2.63353 c 0
 509.681 2.63353 458.412 1.13665 426 -2 c 1
 427 15 l 1
 453 15 501 19 501 43 c 2
 501 301 l 1
 229 301 l 1
 229 43 l 2
 229 19 277 15 303 15 c 1
 304 -1 l 1
 283.333 -0.333333 257.333 -8.88178e-16 229.111 -8.88178e-16 c 0
 172.667 -8.88178e-16 107.333 -1.33333 58 -4 c 1
 58 12 l 1
 58 12 59.3469 11.9592 61.6676 11.9592 c 0
 75.5918 11.9592 124.571 13.4286 128 34 c 0
 130.291 50.0379 134.332 343.703 134.332 490.052 c 0
 134.332 535.332 133.945 566.51 133 571 c 0
 129 588 71 597 71 597 c 1
 71 611 l 1
 102.987 608.136 145.913 606.867 187.702 606.867 c 0
 233.446 606.867 277.825 608.387 305 611 c 1
 305 592 l 1
 276 590 230 586 229 569 c 2
 229 323 l 1
 501 323 l 1
 500 570 l 2
EndSplineSet
EndChar
StartChar: I
Encoding: 73 73 51
Width: 368
Flags: W
Validated: 1
HStem: -3 16<58 60.0492 60.0492 104.834 273.912 313> 592 19<265.816 305.814> 597 14<71.8511 124.169>
VStem: 138 101<23.1024 35 35 122.298 122.298 137.615 137.615 404.129 404.129 583.999>
Fore
239 569 m 0xd0
 239 557.667 236.778 384.556 236.778 232.778 c 0
 236.778 156.889 237.333 86.3333 239 44 c 0
 240 20 287 16 313 16 c 1
 314 0 l 1
 293.333 0.666667 266.222 1 236.519 1 c 0
 177.111 1 107.333 -0.333333 58 -3 c 1
 58 13 l 1
 58 13 59.551 12.9592 62.2216 12.9592 c 0
 78.2449 12.9592 134.571 14.4286 138 35 c 0
 143 64 143 552 143 571 c 0
 143 588 71 597 71 597 c 1
 71 611 l 1
 102.987 608.136 146.369 606.867 188.635 606.867 c 0
 234.899 606.867 279.825 608.387 307 611 c 1xb0
 307 592 l 1
 278 590 239 582 239 569 c 0xd0
EndSplineSet
EndChar
StartChar: J
Encoding: 74 74 52
Width: 376
Flags: W
Validated: 1
HStem: -209 14.919<21.6925 96.1953> 592 19<260.616 311.807> 597 14<79.8551 130.037>
VStem: -72.7773 128.444<-172.256 -79.0667> 151 91.75<-80.0247 53.1918 -13.6548 339.128 180.184 491.811 491.811 498.071 498.071 585.655>
Fore
247 569 m 0xd8
 243.937 526.732 242.75 384.649 242.75 258.603 c 0
 242.75 200.206 243.867 148.414 243.867 102.334 c 0
 243.867 -6.30309 237.662 -83.1875 196 -140 c 0
 156 -195 108 -209 53 -209 c 0
 -38.1816 -209 -72.7773 -166.8 -72.7773 -127.775 c 0
 -72.7773 -94.2132 -47.1888 -63 -10 -63 c 0
 31.0226 -63 55.667 -91.1967 55.667 -123.123 c 0
 55.667 -145.362 43.7093 -169.411 17 -187 c 1
 25.7195 -191.844 37.6721 -194.081 50.3991 -194.081 c 0
 77.0812 -194.081 107.167 -184.249 118 -168 c 0
 143 -130 145 -102 150 -26 c 0
 153.5 37 155 177 155 305.875 c 0
 155 434.75 153.5 552.5 151 571 c 0
 148 588 79 597 79 597 c 1
 79 611 l 1
 110.987 608.136 153.913 606.867 195.702 606.867 c 0
 241.446 606.867 285.825 608.387 313 611 c 1xb8
 313 592 l 1
 284 590 249 590 247 569 c 0xd8
EndSplineSet
EndChar
StartChar: K
Encoding: 75 75 53
Width: 655
Flags: W
Validated: 1
HStem: -1 16<58 59.7293 59.7293 97.9299 263.603 271.952 271.952 303 591.578 668> 597 14<61 109.38 273.587 305 419 436.903 559.071 609>
VStem: 128 101<21.8776 34 34 91.3067> 135.039 93.961<101.96 226 253 498.682 498.682 583.423>
Fore
460 532 m 0xd0
 462 539 469 551 469 556 c 0
 468 584 436 593 419 594 c 1
 417 608 l 1
 440.333 606.667 464.556 606.111 488.111 606.111 c 0
 535.222 606.111 579.667 608.333 609 611 c 1
 609 597 l 1
 609 597 556 594 528 568 c 0
 455 500 421 450 342 352 c 1
 450 212 458 182 563 64 c 0
 595 28 625 22 670 18 c 1
 668 -1 l 1
 615.568 1.06969 569.799 4.56727 526.096 4.56727 c 0
 506.453 4.56727 487.226 3.86061 468 2 c 1
 397 116 354 187 280 290 c 1
 230 226 l 1
 229 43 l 2
 229 19 277 15 303 15 c 1
 304 -1 l 1
 283.333 -0.333333 257.333 -8.88178e-16 229.111 -8.88178e-16 c 0
 172.667 -8.88178e-16 107.333 -1.33333 58 -4 c 1
 58 12 l 1
 58 12 59.3061 11.9592 61.5627 11.9592 c 0
 75.102 11.9592 122.857 13.4286 128 34 c 0xe0
 132.598 53.0488 135.039 270.568 135.039 422.991 c 0
 135.039 502.618 134.373 564.48 133 571 c 0
 129 588 61 597 61 597 c 1
 61 611 l 1
 92.9866 608.136 138.193 606.867 182.364 606.867 c 0
 230.715 606.867 277.825 608.387 305 611 c 1
 305 592 l 1
 276 590 232 584 229 569 c 1
 229 253 l 1
 229 253 451 508 460 532 c 0xd0
EndSplineSet
EndChar
StartChar: L
Encoding: 76 76 54
Width: 574
Flags: W
Validated: 1
HStem: -3 16<48 137.806> -3 25<242.515 339.007 339.007 446.164> 597 17<61 141.178 243.682 312>
VStem: 145.4 95.6<24.3415 40 40 106.374 106.374 179.685 179.685 427.44 427.44 475.769 475.769 586.893> 492 22<58.0935 148>
Fore
239 66 m 0xb8
 239 42 248 22 274 22 c 0
 361 22 400 21 400 21 c 2
 447 21 485 85 492 148 c 1
 514 148 l 1
 498 -3 l 1x78
 48 -3 l 1
 48 13 l 1
 48 13 137 16 140 40 c 0
 143.6 75.4 145.4 239.68 145.4 377.32 c 0
 145.4 469.08 144.6 549 143 571 c 0
 141 592 61 597 61 597 c 1
 61 614 l 1
 312 615 l 1
 312 600 l 1
 282 598 244 592 241 571 c 0
 238.789 393.003 238.106 345.18 238.106 289.526 c 0
 238.106 244.501 238.553 194.35 239 66 c 0xb8
EndSplineSet
EndChar
StartChar: M
Encoding: 77 77 55
Width: 861
Flags: W
Validated: 1
HStem: -3 16<27 60.9123 60.9123 116.072 196.326 213.192 213.192 235.971 235.971 239 577 611.326 788.87 838.993> 591 17<20 87.9246>
VStem: 131 26<34.4731 149.771 149.771 274.577 212.174 461.572 364.144 490> 659 89<58 496>
Fore
203 612 m 1
 233 554 418 202 457 118 c 1
 673 608 l 1
 841 615 l 1
 841 596 l 1
 827 595 749 586 748 561 c 2
 748 58 l 1
 748 58 757 34 777 22 c 0
 789.133 15.4667 803.444 13.7244 815.258 13.7244 c 0
 828.76 13.7244 839 16 839 16 c 1
 839 -2 l 1
 805.5 -0.5 756.25 0.5 707.25 0.5 c 0
 658.25 0.5 609.5 -0.5 577 -3 c 1
 577 13 l 1
 592 16 615 14 633 22 c 0
 648 29 659 43 659 54 c 2
 659 496 l 1
 430 -14 l 1
 414 -14 l 1
 157 490 l 1
 157 490 157.444 357.556 157.444 232.519 c 0
 157.444 170 157.333 109.333 157 68 c 0
 157 30 165 41 181 24 c 1
 199.818 16.6364 221.314 15.9669 232.89 15.9669 c 0
 235.463 15.9669 237.545 16 239 16 c 1
 239 -2 l 1
 209.5 0 173.25 1.25 136 1.25 c 0
 98.75 1.25 60.5 0 27 -3 c 1
 27 13 l 1
 27 13 98 18 117 34 c 0
 129 44 131 60 131 60 c 1
 131 60 133 485 133 518 c 1
 126 559 63 588 20 591 c 1
 20 608 l 1
 203 612 l 1
EndSplineSet
EndChar
StartChar: N
Encoding: 78 78 56
Width: 671
Flags: W
Validated: 1
HStem: 1.25 16.75<20 22.2926 22.2926 55.7755 55.7755 72.478 153.314 201.144 201.144 241.963> 590 22<434 441.077 441.077 458.981 458.981 524.88 622.153 624.033 624.033 651>
VStem: 110 41<21.2679 77.6556 77.6556 172.37 125.013 345.5 246.896 441.201 441.201 444.105 444.105 510> 527 37<189.918 471.379 471.379 560 560 577.736>
Fore
651 590 m 1
 635 589 565 582 564 560 c 0
 562.333 536 561.778 464.556 561.778 379.963 c 0
 561.778 210.778 564 -11 564 -11 c 1
 530 -11 l 1
 530 -11 164 492 147 510 c 1
 146.265 450.849 145.969 407.154 145.969 373.583 c 0
 145.969 234.134 151.078 269.367 151.078 97.2119 c 0
 151.078 85.1951 151.053 72.1678 151 58 c 0
 151 34 160 18 186 18 c 0
 191.475 18 242 16.4 242 16 c 9
 242 -2 l 1
 212.5 0 173.75 1.25 134 1.25 c 0
 94.25 1.25 53.5 0 20 -3 c 1
 20 13 l 1
 20 13 21.7347 12.9592 24.723 12.9592 c 0
 42.6531 12.9592 105.714 14.4286 110 35 c 1
 112.667 193.667 114.889 276.778 114.889 376.481 c 0
 114.889 426.333 114.333 480.333 113 550 c 1
 110 567 23 597 23 597 c 1
 23 614 l 1
 204 613 l 1
 296 485 527 189 527 189 c 1
 528 560 l 2
 527.108 579.615 487.264 590.486 448.159 590.486 c 0
 443.405 590.486 438.661 590.325 434 590 c 1
 432 612 l 1
 461.339 608.152 496.692 606.618 533.387 606.618 c 0
 572.987 606.618 614.148 608.405 651 611 c 1
 651 590 l 1
EndSplineSet
EndChar
StartChar: O
Encoding: 79 79 57
Width: 774
Flags: W
Validated: 1
HStem: -12 20<307.889 486.031> 619 17<292.697 488.01>
VStem: 48 116<188.813 430.196> 614 112<191.502 435.078>
Fore
406 8 m 0
 529 8 614 132.997 614 305 c 0
 614 512 534 619 398 619 c 0
 279 619 164 563 164 304 c 0
 164 198 215 8 406 8 c 0
406 636 m 0
 510 636 726 576 726 305 c 0
 726 95.9785 546 -12 404 -12 c 0
 216 -12 48 104 48 297 c 0
 48 574 256 636 406 636 c 0
EndSplineSet
EndChar
StartChar: P
Encoding: 80 80 58
Width: 549
Flags: W
Validated: 1
HStem: -1 16<59 61.0747 61.0747 106.254 275.202 317.924 317.924 326> 277 21<244.12 371.109> 589 23<241.717 266.413 266.413 333.382> 597 17<72 134.965>
VStem: 142 98<21.841 162.556 162.556 288 303 436.663 436.663 587.416> 423 98<359.844 518.014>
Fore
521 437 m 0xec
 521 341 443 277 313 277 c 0
 259 277 240 288 240 288 c 1
 239 46 l 2
 239 20.1304 275.436 11.3635 309.836 11.3635 c 0
 315.328 11.3635 320.768 11.587 326 12 c 1
 326 -3 l 1
 326 -3 164 -1 59 -1 c 1
 59 15 l 1
 59 15 60.5714 14.9592 63.2741 14.9592 c 0
 79.4898 14.9592 136.429 16.4286 139 37 c 0
 141 56.5 142 172.75 142 292.75 c 0
 142 412.75 141 536.5 139 571 c 0
 137.785 591.965 72 597 72 597 c 1
 72 614 l 1xdc
 177 614 276 612 336 612 c 0
 413 612 521 552 521 437 c 0xec
423 437 m 0
 423 506 415 572 334 587 c 0
 320.818 589.273 307.017 589.893 292.783 589.893 c 0
 275.702 589.893 258 589 240 589 c 1xec
 240 303 l 1
 240 303 258 298 306 298 c 0
 389 298 422 372 423 437 c 0
EndSplineSet
EndChar
StartChar: Q
Encoding: 81 81 59
Width: 722
Flags: W
Validated: 1
HStem: -211 75<555.964 680.479> -57 38.0068<291.9 361.1 346.339 374.043> -12 19.8647<271.453 477.717> 619 17<272.552 467.644>
VStem: 36 116<183.966 436.34> 579.006 111.994<195.68 437.049> 698.053 28.163<-122.199 -50.3357 -50.6835 -49.9879 -49.9879 -48>
Fore
635 -136 m 0
 684.264 -136 698.053 -102.46 698.053 -53.3652 c 0
 698.053 -51.5967 698.035 -49.808 698 -48 c 1
 726 -42 l 1
 726.143 -45.9106 726.216 -49.8326 726.216 -53.7559 c 0
 726.216 -132.1 697.28 -211 623 -211 c 0
 466.861 -211 412 -57 310 -57 c 0
 263 -57 241 -136 240 -143 c 1
 229 -143 222 -139 222 -139 c 1
 222 -118 238 -69 264 -43 c 0
 278.78 -29.2051 315.894 -18.9932 345.677 -18.9932 c 0
 346.119 -18.9932 346.561 -18.9955 347 -19 c 0
 444 -20 531.115 -136 635 -136 c 0
372 -12 m 0
 184 -12 36 106 36 299 c 0
 36 576 234 636 384 636 c 0
 487.5 636 691 572.5 691 305 c 0
 691 126.04 525.995 -12 372 -12 c 0
376 619 m 0
 257 619 152 565 152 306 c 0
 152 201.587 182.171 7.86466 365.53 7.86466 c 0
 574.999 7.86466 579.006 146.268 579.006 288.067 c 0
 579.006 471.956 538.405 619 376 619 c 0
EndSplineSet
EndChar
StartChar: R
Encoding: 82 82 60
Width: 622
Flags: W
Validated: 1
HStem: -2 21<48 94.9608 253.168 263 263 305 590.035 615> 310 23<229 263.379 263.379 342.072> 595 17<61 127.493 229 255.187 255.187 281.1 268.144 344.566>
VStem: 136.32 92.68<39.9016 67 72 146.682 146.682 310 333 501.925 501.925 568 568 581.211> 407.871 98.137<397.129 533.144>
Fore
615 -2 m 1
 438 1 l 1
 438.237 3.44558 438.349 6.11521 438.349 8.98042 c 0
 438.349 42.4343 423.053 102.55 412 144 c 0
 394.001 209.997 359.984 307.969 293 309 c 2
 228 310 l 1
 229 67 l 2
 229 43 231 19 263 19 c 0
 297.216 18.4736 306 17.4 306 17 c 9
 305 -2 l 1
 270.184 0.246211 212.978 1.5464 158.529 1.5464 c 0
 116.016 1.5464 75.1837 0.753789 48 -1 c 1
 48 16 l 1
 70 16 124.562 17.373 128 38 c 0
 129 42 132 49 132 72 c 1
 135.2 145.2 136.32 236.64 136.32 321.04 c 0
 136.32 447.64 133.8 558.4 132 568 c 1
 128 585 61 595 61 595 c 1
 61 612 l 1
 106.429 610.714 153.327 610.347 196.813 610.347 c 0
 254.796 610.347 306.714 611 341 611 c 0
 411.629 611 506.008 556.573 506.008 458.548 c 0
 506.008 394.258 433.847 328.962 345 326 c 1
 450 316 485 218 515 136 c 0
 532 91 541 62 554 44 c 0
 575 14 596 13 615 12 c 1
 615 -2 l 1
336 586 m 0
 320.711 589.822 300.858 591.133 281.782 591.133 c 0
 260.932 591.133 241.011 589.567 229 588 c 1
 229 333 l 1
 282.285 332.18 288.947 331.991 295.607 331.991 c 0
 374.214 331.991 407.871 396.56 407.871 460.837 c 0
 407.871 518.843 381.284 574.893 336 586 c 0
EndSplineSet
EndChar
StartChar: S
Encoding: 83 83 61
Width: 574
Flags: W
Validated: 1
HStem: -15 24<191.387 367.673> -1 178<83 102 81 521 83 83> 619 19<231.187 375.149>
VStem: 105 77<451.663 558.726> 418 103<78.4964 201.085> 453 19<434 540.106>
Fore
294 638 m 0xb8
 358 638 404 601 422 582 c 1
 437 584 451 598 461 623 c 1
 475 623 l 1
 472 434 l 1
 472 434 463 434 453 434 c 1xb4
 445 486 450 515 424 552 c 0
 400 587 356 619 292 619 c 0
 227 619 182 556 182 510 c 0
 182 453 242 403 324 373 c 0
 436.558 331.82 521 261 521 172 c 0
 521 74 468 -15 285 -15 c 0xb8
 207 -15 161 23 138 39 c 1
 119 30 113 20 102 -1 c 1
 81 -1 l 1
 83 177 l 1
 103 177 l 1x78
 123 82 164 9 281 9 c 0
 397 9 418 84 418 141 c 0
 418 204 358.894 247.551 273 277 c 0
 168 313 105 387 105 462 c 0
 105 552 144 638 294 638 c 0xb8
EndSplineSet
EndChar
StartChar: T
Encoding: 84 84 62
Width: 586
Flags: W
Validated: 1
HStem: -1 19<149 155.018 155.018 202.059 399.909 449> 591 19.615<100.183 182.002 182.002 195.904 195.904 249 350 420.301 420.301 506.009>
VStem: 34 19<433 528.391> 248 103<68.4254 591> 545 19<433 543.667>
Fore
227 36 m 0
 244 58 247.967 75 248 92 c 2
 249 591 l 1
 167.479 591.807 156.289 592.007 146.099 592.007 c 0
 80.7724 592.007 55.9863 483.767 53 433 c 1
 34 433 l 1
 38 614 l 1
 106.051 611.89 212.226 610.615 316.303 610.615 c 0
 409.519 610.615 501.051 611.638 562 614 c 1
 564 433 l 1
 545 433 l 1
 542 488 530.005 589.421 464 590 c 2
 350 591 l 1
 351 92 l 2
 351.049 67 360 47 369 36 c 0
 382 20 419 18 449 18 c 1
 449 -1 l 1
 149 -1 l 1
 149 18 l 1
 152.899 18 156.939 17.9693 161.046 17.9693 c 0
 186.434 17.9693 214.357 19.1429 227 36 c 0
EndSplineSet
EndChar
StartChar: U
Encoding: 85 85 63
Width: 745
Flags: W
Validated: 1
HStem: -19 29<305.27 484.496> 592 19<51 113.44 262.457 310 648.398 695>
VStem: 127.957 106.043<113.861 285.06 285.06 310.64 310.64 491.191 491.191 510.694 510.694 569> 567.041 41.959<111.039 256.32 181.82 399.818 324.037 475.599 475.599 494.405 494.405 569>
Fore
234 213 m 2
 234 30 325 10 402 10 c 0
 495.71 10 567.041 49.8942 567.041 221.825 c 0
 567.041 249.809 567.32 242.813 567.32 291.784 c 0
 567.32 351.88 566.6 451 563 571 c 1
 560 588 481 597 481 597 c 1
 481 611 l 1
 512.987 608.136 551.355 606.867 588.38 606.867 c 0
 628.908 606.867 667.825 608.387 695 611 c 1
 695 592 l 1
 666 590 639 584 609 569 c 1
 606.667 522.333 605.889 469.444 605.889 419.667 c 0
 605.889 320.111 609 233 609 233 c 0
 609 79 536 -14 385 -19 c 0
 279.035 -19 127.957 30.0371 127.957 218.438 c 0
 127.957 232.71 134.791 304.42 134.791 450.655 c 0
 134.791 487.719 134.286 528.143 133 571 c 1
 130 588 51 597 51 597 c 1
 51 611 l 1
 82.9866 608.136 131.612 606.867 179.356 606.867 c 0
 231.618 606.867 282.825 608.387 310 611 c 1
 310 592 l 1
 272 589 247 582 234 569 c 1
 233 521.333 232.667 465.889 232.667 413.148 c 0
 232.667 307.667 234 213 234 213 c 2
EndSplineSet
EndChar
StartChar: V
Encoding: 86 86 64
Width: 684
Flags: W
Validated: 1
HStem: 592 19<257.703 284 659.245 684>
Fore
203 538 m 1
 266 382 310 279 381 121 c 1
 396.577 157.035 559.315 531.142 559.315 560.107 c 0
 559.315 567.473 555.672 575.443 539 581 c 2
 480 597 l 1
 480 611 l 1
 511.987 608.136 548.076 606.867 582.718 606.867 c 0
 620.639 606.867 656.825 608.387 684 611 c 1
 684 592 l 1
 668 591 638 586 619 575 c 0
 604 566 580 523 580 523 c 1
 521 352 427 162 371 -14 c 1
 332 -15 l 1
 242 205 155 390 113 496 c 0
 94 544 71 570 55 578 c 0
 41 585 9 595 0 597 c 1
 0 611 l 1
 31.9866 608.136 86.3096 606.867 140.009 606.867 c 0
 198.791 606.867 256.825 608.387 284 611 c 1
 284 592 l 1
 273 591 217 584 212 575 c 0
 204 559 203 538 203 538 c 1
EndSplineSet
EndChar
StartChar: W
Encoding: 87 87 65
Width: 990
Flags: W
Validated: 1
HStem: 591 20<23 38.9933 520.86 553> 592 19<307.633 327 967.245 992>
Fore
358 -11 m 1x40
 320 -11 l 1
 227 254 198 330 136 497 c 0
 118 545 94 570 78 578 c 0
 64 585 32 595 23 597 c 1
 23 611 l 1x80
 54.9866 608.136 113.868 606.867 172.332 606.867 c 0
 236.329 606.867 299.825 608.387 327 611 c 1
 327 592 l 1
 316 591 252 578 247 569 c 0
 243.605 561.785 241.83 551.327 241.83 539.003 c 0
 241.83 522.29 245.093 502.145 252 482 c 0
 294 361 342 242 375 154 c 1
 385 181 462 410 492 507 c 2
 527 621 l 1
 553 620 l 1
 584 503 681 288 733 135 c 1
 758.792 216.766 867.315 525.02 867.315 558.107 c 0
 867.315 565.473 863.672 573.443 847 579 c 2
 788 595 l 1
 788 609 l 1
 819.987 606.136 856.076 604.867 890.718 604.867 c 0
 928.639 604.867 964.825 606.387 992 609 c 1
 992 590 l 1
 976 589 946 584 927 573 c 0
 912 564 888 521 888 521 c 1
 830 339 769 169 718 -11 c 1
 685 -11 l 1
 641 127 560 298 507 428 c 1
 473 321 395 120 358 -11 c 1x40
EndSplineSet
EndChar
StartChar: X
Encoding: 88 88 66
Width: 718
Flags: W
Validated: 1
HStem: -6 19<47 71.7555 409 436.287> 592 19<307.867 331 636.245 661>
Fore
552 532 m 1
 407 329 l 1
 407 329 506.037 175.148 574 80 c 24
 590.042 57.542 606 34 622 28 c 0
 637 22 684 10 693 8 c 1
 693 -6 l 1
 661.013 -3.13553 606.69 -1.86651 552.991 -1.86651 c 0
 494.209 -1.86651 436.175 -3.38706 409 -6 c 1
 409 13 l 1
 420 14 467 19 472 28 c 0
 474.286 32.5714 475.102 37.7143 475.102 42.7289 c 0
 475.102 55.2653 475.096 58.7784 470 67 c 24
 419.341 148.734 333 272 333 272 c 1
 174.64 53.5032 172.567 55.5898 172.567 49.207 c 0
 172.567 42.2695 175.059 29.6475 192 24 c 2
 251 8 l 1
 251 -6 l 1
 219.014 -3.13574 182.924 -1.86621 148.282 -1.86621 c 0
 110.361 -1.86621 74.1748 -3.38672 47 -6 c 1
 47 13 l 1
 63 14 93 19 112 30 c 0
 127 39 156 73 156 73 c 1
 321 292 l 1
 158 536 l 2
 144 554 117 573 100 584 c 0
 87 593 46 595 37 597 c 1
 37 611 l 1
 68.9866 608.136 125.589 606.867 181.671 606.867 c 0
 243.06 606.867 303.825 608.387 331 611 c 1
 331 592 l 1
 320 591 274 584 269 575 c 0
 266.538 570.077 265.686 564.68 265.686 559.568 c 0
 265.686 548.065 270 538 270 538 c 1
 387 347 l 1
 534.929 550.902 535.433 549.258 535.433 555.793 c 0
 535.433 562.73 532.941 575.353 516 581 c 2
 457 597 l 1
 457 611 l 1
 488.987 608.136 525.076 606.867 559.718 606.867 c 0
 597.639 606.867 633.825 608.387 661 611 c 1
 661 592 l 1
 645 591 615 586 596 575 c 0
 581 566 552 532 552 532 c 1
EndSplineSet
EndChar
StartChar: Y
Encoding: 89 89 67
Width: 630
Flags: W
Validated: 1
HStem: -9 16<190 195.322 195.322 244.546 409.412 456> 592 19<263.867 287 592.245 617>
VStem: 274 102<17.1777 29 34 147.56 147.56 149.941 149.941 241>
Fore
279 241 m 1
 240 333 175 449 112 536 c 0
 95 560 76 574 68 578 c 0
 54 585 22 595 13 597 c 1
 13 611 l 1
 44.9866 608.136 97.0303 606.867 148.348 606.867 c 0
 204.522 606.867 259.825 608.387 287 611 c 1
 287 592 l 1
 276 591 230 584 225 575 c 0
 217 559 216 540 216 540 c 1
 268 438 298 384 352 294 c 1
 404.409 387.588 493.643 549.069 493.643 560.565 c 0
 493.643 568.087 488.479 576.194 472 581 c 2
 413 597 l 1
 413 611 l 1
 444.987 608.136 481.076 606.867 515.718 606.867 c 0
 553.639 606.867 589.825 608.387 617 611 c 1
 617 592 l 1
 601 591 571 586 552 575 c 0
 537 566 514 538 514 538 c 1
 453 432 411 363 372 282 c 1
 372 260 373 192 376 34 c 0
 376 13 426 10 456 10 c 1
 456 -9 l 1
 190 -9 l 1
 190 7 l 1
 192.032 6.96016 198.267 6.93652 200.66 6.93652 c 0
 228.305 6.93652 273.08 10.1335 274 29 c 1
 276 147 278 209 279 241 c 1
EndSplineSet
EndChar
StartChar: Z
Encoding: 90 90 68
Width: 586
Flags: W
HStem: -9 15<205.587 371.128 371.128 401.994> 593 14.935<162.875 299 299 411.505>
VStem: 50 496<7 148 -69.8983 7>
Fore
50 7 m 1
 182 204 296 386 414 593 c 1
 184 589 l 2
 118 588 101 509 93 473 c 1
 74 473 l 1
 77 614 l 1
 144.135 609.474 213.972 607.935 279.377 607.935 c 0
 387.385 607.935 483.304 612.132 535 614 c 1
 535 593 l 1
 242 108 l 2
 232.657 91.6502 203.918 38.9312 203.918 16.3847 c 0
 203.918 9.9719 206.243 6 212 6 c 0
 260 6 386 6 432 12 c 0
 466 16 518 93 524 148 c 1
 546 148 l 1
 523 -9 l 1
 439.424 -7.82288 366.779 -7.41554 302.226 -7.41554 c 0
 202.261 -7.41554 121.7 -8.39237 50 -9 c 1
 50 7 l 1
EndSplineSet
EndChar
StartChar: bracketleft
Encoding: 91 91 69
Width: 276
Flags: W
Validated: 1
HStem: -128 26<162 256> 646 22<162 256>
VStem: 101 61<-102 646> 101 155<-128 -102 646 668>
Fore
101 668 m 1xd0
 256 668 l 1
 256 646 l 1xd0
 162 646 l 1
 162 -102 l 1xe0
 256 -102 l 1
 256 -128 l 1
 101 -128 l 1
 101 668 l 1xd0
EndSplineSet
EndChar
StartChar: backslash
Encoding: 92 92 70
Width: 302
Flags: W
Validated: 1
VStem: 13 276<-128 695 695 695>
Fore
65 709 m 1
 289 -128 l 1
 237 -142 l 1
 13 695 l 1
 65 709 l 1
EndSplineSet
EndChar
StartChar: bracketright
Encoding: 93 93 71
Width: 276
Flags: W
Validated: 1
HStem: -128 26<31 125> -128 796<125 186 31 186 186 186> 646 22<31 125>
VStem: 125 61<-102 646>
Fore
186 668 m 1x50
 186 -128 l 1x50
 31 -128 l 1
 31 -102 l 1
 125 -102 l 1
 125 646 l 1
 31 646 l 1xb0
 31 668 l 1
 186 668 l 1x50
EndSplineSet
EndChar
StartChar: asciicircum
Encoding: 94 94 72
Width: 412
Flags: W
Validated: 1
HStem: 434 156<205 312 205 205>
VStem: 70 255<442 445 442 442>
Fore
70 442 m 5
 205 590 l 5
 325 445 l 5
 312 434 l 5
 202 535 l 5
 84 434 l 5
 70 442 l 5
EndSplineSet
EndChar
StartChar: underscore
Encoding: 95 95 73
Width: 519
Flags: W
Validated: 1
HStem: -67 48<44 468>
VStem: 44 424<-67 -19 -67 -19 -67 -67>
Fore
44 -19 m 1
 468 -19 l 1
 468 -67 l 1
 44 -67 l 1
 44 -19 l 1
EndSplineSet
EndChar
StartChar: grave
Encoding: 96 96 74
Width: 412
Flags: W
Validated: 1
HStem: 451 155<127 258 127 127>
VStem: 99 181<466 573 573 573>
Fore
99 573 m 1
 127 606 l 1
 280 466 l 1
 258 451 l 1
 99 573 l 1
EndSplineSet
EndChar
StartChar: a
Encoding: 97 97 75
Width: 457
Flags: W
HStem: -9 44<152.783 234.452> -7 32<344.25 427.5> -7 411<193 230 169 217 217 252.1> 386 18<162.613 267.814>
VStem: 50 84<54.0697 163.497> 68 100.004<261.414 324.681> 290 80<92 167.045 167.045 207 221 256.1 211.573 338.989> 442 15<22.1442 74.5346>
Fore
442 81 m 1x47
 457 72 l 1
 449 23 417 -7 363 -7 c 0x47
 314 -7 297 34 294 67 c 1
 273 44 230 -8 169 -9 c 0
 112 -9 50 20 50 105 c 0
 50 231 254 219 290 221 c 1
 290 221 293 254 293 293 c 0
 293 346 271 386 208 386 c 0x9b
 166 386 145 363 140 343 c 1
 167.129 343 168.004 313.246 168.004 299.582 c 0
 168.004 260.716 132.19 251 116 251 c 0
 91 251 68 278 68 306 c 0
 68 337 94 361 114 376 c 0
 150 403 193 404 217 404 c 0x27
 293.5 404 374 354 374 263 c 0
 374 201.967 370 142 370 90 c 0
 370 61 372 25 400 25 c 0
 426 25 434 44 442 81 c 1x47
290 92 m 1
 290 122 290 207 290 207 c 1
 198 197 134 201 134 116 c 0
 134 55.5 169 35 208 35 c 0x8b
 249.195 35 277 68 290 92 c 1
EndSplineSet
EndChar
StartChar: b
Encoding: 98 98 76
Width: 510
Flags: W
HStem: -10 36<229.295 331.029> 373 30<237.171 342.261>
VStem: 101 82<84 185.327 185.327 251 320 451.109 451.109 482 482 596.373> 388 92<99.8959 311.004>
Fore
480 200 m 0
 480 67 384 -10 298 -10 c 0
 244 -10 203 28 172 62 c 1
 150 38 144 16 129 -7 c 1
 123.333 -8 118.333 -8.33301 114.185 -8.33301 c 0
 105.889 -8.33301 101 -7 101 -7 c 1
 102.606 71.6719 103.638 188.438 103.638 304.823 c 0
 103.638 405.905 102.859 506.7 101 582 c 0
 101 596 62 601 30 603 c 1
 30 615 l 1
 99.1865 618.641 155.533 631.38 183 644 c 1
 179 320 l 1
 207 358 241 403 308 403 c 0
 400 403 480 345 480 200 c 0
388 203 m 0
 388 272 371 373 286 373 c 0
 227 373 190 296 190 296 c 1
 183 206 l 1
 186 84 l 1
 186 84 210 26 277 26 c 0
 342 26 388 100 388 203 c 0
EndSplineSet
EndChar
StartChar: c
Encoding: 99 99 77
Width: 424
Flags: W
HStem: -15 33<201.257 327.274> 388 17<199.094 326.506>
VStem: 50 88<93.3086 299.78> 290 113<232.5 304.31>
Fore
251 405 m 0
 320 405 403 359 403 292 c 0
 403 236 365 215 345 215 c 0
 327 215 290 218 290 268 c 0
 290 297 310.5 319 331 319 c 0
 348.117 319 355 314 364 306 c 1
 357 334 338 388 249 388 c 0
 186 388 138 301 138 186 c 0
 138 104 187 18 258 18 c 0
 346 18 366 85 377 115 c 1
 404 96 l 1
 391 64 344 -15 249 -15 c 0
 130 -15 50 57 50 205 c 0
 50 354 176 405 251 405 c 0
EndSplineSet
EndChar
StartChar: d
Encoding: 100 100 78
Width: 490
Flags: W
HStem: -6.00879 32.0088<201.434 302.803> 0 12<461.241 490> 381 21<203.463 313.234> 605 17<286 328.373>
VStem: 60 99<89.0599 291> 355 78.6709<78.5879 128 128 173 173 183.582 183.582 262 262 306 342 531.287 531.287 600.414>
Fore
439 641 m 1xbc
 435.968 547.004 433.671 395.637 433.671 259.159 c 0
 433.671 170.585 434.639 88.2812 437 32 c 0
 438 13 480 14 490 12 c 1
 490 0 l 1x7c
 461 -1 393 -2 365 -10 c 1
 357 62 l 1
 332.205 31.2383 282.995 -6.00879 233.093 -6.00879 c 0
 131.112 -6.00879 60 73.7236 60 190 c 0
 60 315 141 402 254 402 c 0
 331 402 355 342 355 342 c 1
 355 585 l 1
 352 601 317 605 285 605 c 1
 286 622 l 1
 331 622 399 627 439 641 c 1xbc
349 128 m 2
 355 218 l 1
 351 306 l 1
 351 306 326 381 255 381 c 0
 179 381 159 288 159 199 c 0
 159 137 168 26 258 26 c 0xbc
 308 26 349 89 349 128 c 2
EndSplineSet
EndChar
StartChar: e
Encoding: 101 101 79
Width: 440
Flags: W
HStem: -17 24<198.4 319.936> 212 15<147 323> 379 18<186.988 287.811>
VStem: 50 96<82.1859 212 227 292.585> 324.196 87.0469<228.273 270.124 264.383 275.865 275.865 277 308 322.98>
Fore
147 227 m 1
 323 228 l 1
 323.732 238.249 324.196 248.765 324.196 259.06 c 0
 324.196 276.89 322.804 294.053 319 308 c 0
 309 347 277 379 229 379 c 0
 180 379 152 318 147 227 c 1
146 212 m 1
 146 205 146 198 146 190 c 0
 146 108 176 7 247 7 c 0
 335 7 372 79 383 109 c 1
 410 90 l 1
 397 58 349 -17 243 -17 c 0
 139 -17 50 48 50 186 c 0
 50 349 167 397 250 397 c 0
 308 397 388 371 407 277 c 0
 409.121 267.1 411.243 255.701 411.243 238.205 c 0
 411.243 230.958 410.879 222.665 410 213 c 1
 146 212 l 1
EndSplineSet
EndChar
StartChar: f
Encoding: 102 102 80
Width: 380
Flags: W
HStem: 0 18<73 108.007 108.007 122.271 272.311 310.184> 369 22<79 161 242 335> 640 15<272.665 394.408>
VStem: 73 397<0 570 81 174> 157 85<24.5259 206 206 206 206 369 391 401.346 401.346 479.573> 369 101<516.038 584.805>
Fore
325 0 m 1xec
 286.5 3 239.5 4.5 194.125 4.5 c 0
 148.75 4.5 105 3 73 0 c 1
 73 18 l 1xf0
 114 18 156 23 157 43 c 1xe8
 161 369 l 1
 79 369 l 1
 79 391 l 1
 161 391 l 1
 160.828 397.825 160.732 404.735 160.732 411.699 c 0
 160.732 530 190 655 331 655 c 0
 381 655 470 625 470 570 c 0xf0
 470 543 456 503 414 503 c 0
 386 503 369 530 369 550 c 0
 369 580 405 595 405 595 c 1
 403 630 360 640 328 640 c 0
 296.331 640 275.96 626.463 262.887 606 c 0
 242.185 573.598 239.78 523.831 239.78 482.954 c 0
 239.78 409.391 242 427.782 242 391 c 1
 335 391 l 1
 335 369 l 1
 242 369 l 1
 248 43 l 2
 250.039 25.3252 273.337 16.5146 295.902 16.5146 c 0
 306.53 16.5146 316.995 17.3594 325 18 c 1
 325 0 l 1xec
EndSplineSet
EndChar
StartChar: g
Encoding: 103 103 81
Width: 466
Flags: W
HStem: -229 17<146.017 310.562> -21.6855 76.6211<115.276 148.354 148.354 270.892> 109 17<184.041 282.541> 367 40<360.315 429.617> 378 17<187.476 279.117>
VStem: 40 70<-176.967 -74.806> 64 49<30.6088 104.779> 71 77<184.034 323.84> 317 73<182.758 330.937> 359 65<-142.528 -53.672>
Fore
432.5 330 m 0xf1
 410 330 397 367 386 367 c 0
 374.955 367 361 366 349 352 c 1
 349 352 390 324 390 257 c 0
 390 158 297 109 234 109 c 0
 192 109 154 126 154 126 c 1
 154 126 115 110 113 87 c 0xf280
 113.854 57.1221 148.958 54.9355 176.632 54.9355 c 0
 225.179 54.9355 274.393 52.7217 298 48 c 0
 368 35 424 14 424 -70 c 0
 424 -171 323 -229 200 -229 c 0
 83 -229 40 -176 40 -125 c 0xf440
 40 -74 90 -46.5 153 -22 c 1
 150.273 -22.4541 147.306 -21.6855 144.165 -21.6855 c 0
 112.761 -21.6855 64 1.4541 64 56 c 0xf2
 64 100.5 106 122 134 136 c 1
 122 148 71 191 71 254 c 0
 71 323 132 395 226 395 c 0xe9
 297 395 337 367 337 367 c 1
 354 382 387 407 415 407 c 0
 451.438 407 461 388 461 370 c 0
 461 347.5 451 330 432.5 330 c 0xf1
317 255 m 0
 317 339 269 378 230 378 c 0
 194 378 148 329 148 257 c 0xe980
 148 186 179 126 233 126 c 1
 276 126 317 161.15 317 255 c 0
359 -115 m 0xe440
 359 -38 312 -24 181 -24 c 1
 181 -24 110 -45 110 -118 c 0
 110 -157 137 -212 217 -212 c 0
 314 -212 359 -163 359 -115 c 0xe440
EndSplineSet
EndChar
StartChar: h
Encoding: 104 104 82
Width: 550
Flags: W
HStem: 0 16<60 90.5469 219.906 268 320 361.044 486.404 530> 359 37<262.721 364.956> 600 20G<60 60.5449> 622 20G<171.932 201.883>
VStem: 60 470<16 620 309.906 358> 124.736 75.2637<22.6979 201.391 201.391 275 300 476.914 476.914 584> 384.017 79.9834<19.7457 35.684 35.684 47.944 47.944 155.78 155.78 329.238>
Fore
60 620 m 1xf8
 60.5449 619.999 l 0
 67.6064 619.999 141.863 620.523 202 642 c 1
 200 300 l 1
 227 342 259 396 334 396 c 0
 434.9 396 464.219 291.799 464.219 251.585 c 0
 464.219 197.249 463.88 104.548 463.88 60.4473 c 0
 463.88 46.6787 463.913 37.6475 464 36 c 0xf6
 465 17 504 17 530 16 c 1
 530 0 l 1xf8
 501.355 2.86426 462.682 4.13379 425.079 4.13379 c 0
 383.918 4.13379 344.039 2.61328 320 0 c 1
 320 16 l 1
 340.765 16.9893 384.017 17 384.017 35.3682 c 0
 384.017 35.5762 384.011 35.7871 384 36 c 2
 384 36 384 235 384 269 c 0
 384 322 365 359 317 359 c 0
 259 359 235 327 200 275 c 1
 200 36 l 2xf6
 200 15 244 17 268 16 c 1
 268 0 l 1
 240.303 2.61328 199.224 4.13379 158.749 4.13379 c 0
 121.773 4.13379 85.3027 2.86426 60 0 c 1
 60 16 l 1xf8
 79 16 122 23 122 36 c 0
 122 117.583 124.736 247.721 124.736 368.596 c 0xf4
 124.736 450.725 124.022 528.574 122 584 c 1
 107 599 93 600 60 604 c 1
 60 620 l 1xf8
EndSplineSet
EndChar
StartChar: i
Encoding: 105 105 83
Width: 306
Flags: W
HStem: 0 16<69 109.73 235.451 277> 374 16<69 108.219> 512 114<126.212 211.932>
VStem: 112 114<526.121 612.034> 131 80<20.6161 206.584 206.584 364>
Fore
166 626 m 0xf0
 194 626 226 602 226 572 c 0
 226 537 198 512 166 512 c 0
 142 512 112 534 112 566 c 0
 112 599 140 626 166 626 c 0xf0
EndSplineSet
Refer: 185 305 N 1 0 0 1 30 0 2
EndChar
StartChar: j
Encoding: 106 106 84
Width: 310
Flags: W
HStem: -204 29<48.0562 114.007> 374 16<76 107.221> 510 116<136.08 221.375>
VStem: -31 97<-124.585 -73.3337> 122 116<525.84 610.533> 138 80<-71.7976 180.77 180.77 364>
Fore
218 412 m 1xf4
 216 243 216 264 216 -14 c 0
 216 -134 122 -204 66 -204 c 0
 30 -204 -31 -179 -31 -135 c 0
 -31 -80 -3 -61 24 -61 c 0
 49 -61 66 -84 66 -105 c 0
 66 -122 58 -145 35 -151 c 1
 40 -167 62 -175 77 -175 c 0
 94 -175 117 -173 131 -147 c 0
 137 -136 138 -38 138 -14 c 2
 138 364 l 1
 116 372 101 370 76 374 c 1
 76 390 l 1
 125 390 177.5 402.5 218 412 c 1xf4
188 626 m 0
 215 626 238 595 238 572 c 0
 238 548 212.5 510 186 510 c 0
 149 510 122 529 122 572 c 0xf8
 122 606 161 626 188 626 c 0
EndSplineSet
EndChar
StartChar: k
Encoding: 107 107 85
Width: 521
Flags: W
HStem: 0 16<30 62.9397 196.58 248 434.394 488.461 488.461 491> 365 21<270 291.263> 614 16<30 32.4554 32.4554 70.6631>
VStem: 102 77<38.3554 75.2468 75.2468 137.959 137.959 176 201 401.863 401.863 463.876 463.876 594>
Fore
194 192 m 1
 180 176 l 1
 178.827 154.002 178.336 125.755 178.336 99.7324 c 0
 178.336 81.3945 178.58 64.1621 179 51 c 0
 179.638 42.3877 182.956 35.8574 188 30.917 c 0
 199.156 19.9902 204 18.5 248 16 c 1
 248 0 l 1
 222.014 2.3623 184.196 3.38574 145.728 3.38574 c 0
 102.777 3.38574 59.0137 2.11035 30 0 c 1
 30 16 l 1
 50 17 101.5 22.5 102 36 c 0
 104.735 109.833 105.385 222.11 105.385 332.253 c 0
 105.385 430.901 104.362 527.854 102 594 c 1
 91 611 63 613 30 614 c 1
 30 630 l 1
 31.2793 629.889 32.9365 629.831 34.9443 629.831 c 0
 55.7764 629.831 114.421 635.994 182 652 c 1
 181 547 179 201 179 201 c 1
 277 313 l 2
 282.578 319.693 291.267 333.542 291.267 345.349 c 0
 291.267 354.711 285.805 362.789 269 365 c 1
 269 371.333 270 380.667 270 386 c 1
 434 386 l 1
 434 367 l 1
 414 365 350 356 320 328 c 2
 242 232 l 1
 310 162 308 155 381 81 c 0
 434.424 26.6387 460.616 11.8076 485.923 11.8076 c 0
 487.616 11.8076 489.306 11.874 491 12 c 1
 491 -2 l 1
 356 -4 l 1
 330 44 244 136 194 192 c 1
EndSplineSet
EndChar
StartChar: l
Encoding: 108 108 86
Width: 266
Flags: W
HStem: 0 16<40 70.8909 70.8909 75.7502 229.271 256> 604 16<40 73.1942> 622 20G<164.5 188.4>
VStem: 106 79.8398<23.0809 163.774 163.774 234.634 234.634 439.349 439.349 555.816 555.816 584>
Fore
190 642 m 1
 186.8 569.6 185.84 502.64 185.84 430.56 c 0
 185.84 322.44 188 202.8 188 36 c 1
 191 20 233 20 256 16 c 1
 256 0 l 1
 224.861 3.89258 187.925 5.35352 152.713 5.35352 c 0
 106.506 5.35352 63.2686 2.83789 40 0 c 1
 40 16 l 1
 63 17 104 20 106 36 c 0
 108.362 100.729 109.386 196.041 109.386 293.036 c 0
 109.386 401.333 108.11 511.729 106 584 c 1
 89 598 71 604 40 604 c 1
 40 620 l 1
 97.333 623.667 139 632.333 190 642 c 1
EndSplineSet
EndChar
StartChar: m
Encoding: 109 109 87
Width: 794
Flags: W
HStem: 0 16<60 107.147 232.739 268 298 328.342 487.936 518 554 579.626 725 764> 359 37<258.147 349.099 502.675 602.722> 374 16<60 70.807 70.807 72.677 72.677 113.736>
VStem: 122 78<22.0237 136.991 136.991 265> 362 88<22.8875 285> 618 80<23.3763 146.716 146.716 339.208>
Fore
319 396 m 0xdc
 394 396 430 354 442 302 c 1
 475 353 506 396 569 396 c 0
 681 396 698 304 698 241 c 2
 698 41 l 2
 698 12 748 21 764 16 c 1
 764 0 l 1
 744.629 2.3623 710.3 3.38574 673.04 3.38574 c 0
 631.438 3.38574 586.179 2.11035 554 0 c 1
 554 16 l 1
 569.333 17.333 617.943 23.3291 618 36 c 2
 618 36 619 225 619 259 c 0
 619 328 604 359 552 359 c 0
 491 359 450 285 450 285 c 1
 450 36 l 2
 450 24.333 495.333 16.667 518 16 c 1
 518 0 l 1
 489.179 2.3623 449.643 3.38574 410.677 3.38574 c 0
 367.171 3.38574 324.376 2.11035 298 0 c 1
 298 16 l 1
 311.667 16.667 362 21 362 36 c 2
 362 36 362 226 362 260 c 0
 362 329 354 359 302 359 c 0xdc
 272 359 220 319 200 265 c 1
 200 36 l 2
 200 21.333 246.333 16.667 268 16 c 1
 268 0 l 1
 240.287 1.73242 194.908 3.46387 150.144 3.46387 c 0
 117.375 3.46387 84.9365 2.53613 60 0 c 1
 60 16 l 1
 82 18 122 12 122 36 c 0
 123.215 85.8252 125.169 165.556 125.169 239.075 c 0
 125.169 286.549 124.354 331.433 122 364 c 0
 121.354 373.05 103.155 375.414 85.5059 375.414 c 0
 75.8525 375.414 66.3643 374.707 60 374 c 1
 60 390 l 1xbc
 67.4492 389.608 74.6426 389.421 81.5908 389.421 c 0
 127.808 389.421 163.182 397.699 191 409 c 1
 204 305 l 1
 232 347 259 396 319 396 c 0xdc
EndSplineSet
EndChar
StartChar: n
Encoding: 110 110 88
Width: 562
Flags: W
HStem: 0 16<64 90.4236 223.25 272 332 355.687 516.518 542> 359 37<274.747 368.807> 364 16<64 82.2781>
VStem: 126 78<24.4822 118.846 118.846 273.794> 396 82<24.9278 139.216 139.216 328.781>
Fore
64 380 m 1xb8
 70.1797 379.606 76.377 379.419 82.5684 379.419 c 0
 123.467 379.419 164.128 387.578 198 398 c 1
 206 302 l 1
 225 331 273.992 396 338 396 c 0
 454 396 478 301 478 242 c 2
 478 42 l 2
 478 27.5 521 16 542 16 c 1
 542 0 l 1
 514.374 1.25586 469.007 4.48242 420.009 4.48242 c 0
 390.969 4.48242 360.654 3.34961 332 0 c 1
 332 16 l 1
 355 17 395.933 27.5029 396 41 c 2
 396 41 397 205 397 239 c 0
 397 308 373 359 321 359 c 0xd8
 282 359 223 317 204 255 c 1
 204 37 l 2
 204 25 243 18 272 16 c 1
 272 0 l 1
 247.206 2.11035 206.829 3.38574 165.694 3.38574 c 0
 128.853 3.38574 91.4033 2.3623 64 0 c 1
 64 16 l 1
 88.5 16 125.5 27.5 126 41 c 0
 127.485 81.1123 128.235 138.859 128.235 197.549 c 0
 128.235 255.866 127.495 311.128 126 351 c 1
 105 362 94 362 64 364 c 1
 64 380 l 1xb8
EndSplineSet
EndChar
StartChar: o
Encoding: 111 111 89
Width: 475
Flags: W
HStem: -17 25<196.56 315.979> 388 19<196.028 309.592>
VStem: 50 90<87.6471 297.509> 369 86<99.1692 291.106>
Fore
258 8 m 0
 328 8 369 74 369 197 c 0
 369 292 328 388 256 388 c 0
 159 388 140 272 140 190 c 0
 140 85 182 8 258 8 c 0
247 407 m 0
 365 407 455 310 455 208 c 0
 455 92 395 -17 255 -17 c 0
 119 -17 50 58 50 207 c 0
 50 328 152 407 247 407 c 0
EndSplineSet
EndChar
StartChar: p
Encoding: 112 112 90
Width: 508
Flags: W
HStem: -214 14<32 64.8338 235.703 270> -6 27<211.969 336.936> 362 44.0312<248.69 338.135> 374 15<30 102.194>
VStem: 105.468 78.5322<-176 -85.011 -85.011 39 65 212.511 212.511 228.188> 374 104<103.723 303.833>
Fore
192 285 m 1xec
 184 184 l 1
 185 65 l 1
 207 40 240 21 290 21 c 0
 345 21 374 86 374 189 c 0
 374 295.019 346 362 296 362 c 0
 244 362 214 330 192 285 c 1xec
30 389 m 1xdc
 92 389 130 395 177 407 c 1
 190 317 l 1
 219.806 365.075 255.103 406.031 318.696 406.031 c 0xec
 403.582 406.031 478 312.88 478 207 c 0
 478 104 419 -6 284 -6 c 0
 244 -6 210 11 184 39 c 1
 185 -176 l 1
 196 -192 246 -200 271 -200 c 1
 270 -214 l 1
 237.5 -212 190.5 -211 145.375 -211 c 0
 100.25 -211 57 -212 32 -214 c 1
 32 -200 l 1
 64 -199 100 -192 101 -176 c 0
 103.913 -100.266 105.468 20.6816 105.468 137.304 c 0
 105.468 220.865 104.67 300.152 103 354 c 1
 86 362 56 373 30 374 c 1
 30 389 l 1xdc
EndSplineSet
EndChar
StartChar: q
Encoding: 113 113 91
Width: 508
Flags: W
HStem: -213 14<296 320.364 320.364 331.031 471.789 481.092 481.092 508> -14 37<200.577 295.861> 383 21<207.78 307.888>
VStem: 60 104<85.4117 284.647> 359 79<-192.49 69 105 276.2> 409 33<344.791 392>
Fore
354 302 m 1xf8
 332 347 300 383 250 383 c 0
 196 383 164 298 164 192 c 0
 164 90.9805 191 23 246 23 c 0
 319 23 351 96 359 105 c 1
 359 216 l 1
 354 302 l 1xf8
442 396 m 1xf4
 442 217 439 3 438 -176 c 0
 438 -192 476 -198 508 -199 c 1
 508 -213 l 1
 467.289 -211.177 426.209 -208.247 382.292 -208.247 c 0
 353.932 -208.247 324.39 -209.469 293 -213 c 1
 296 -199 l 1
 317 -199 354 -196 358 -176 c 1
 359 69 l 1xf8
 331 30 285 -14 228 -14 c 0
 126 -14 60 70 60 194 c 0
 60 272 119 404 255 404 c 0
 296 404 344 354 366 319 c 1
 380 329 409 369 409 392 c 1
 442 396 l 1xf4
EndSplineSet
EndChar
StartChar: r
Encoding: 114 114 92
Width: 422
Flags: W
HStem: 0 16<229.819 270> 369 37<268.363 354.778> 374 16<62 107.767>
VStem: 124 78<26.1175 250 292 298.402> 304 104<271.376 317.17>
Fore
331 406 m 0xd8
 380 406 408 375 408 321 c 0
 408 290 383 256 354 256 c 0
 334 256 305 275 304 302 c 0
 304 316 311 328 332 343 c 1
 325 355 323 369 299 369 c 0xd8
 238 369 200 250 200 250 c 1
 202 41 l 2
 203 21 257 17 270 16 c 1
 270 0 l 1
 244.679 2.11035 204.33 3.38574 163.341 3.38574 c 0
 126.629 3.38574 89.4033 2.3623 62 0 c 1
 62 16 l 1
 78 17 124 30 124 41 c 2
 124 364 l 1
 108 374 88 373 62 374 c 1
 60 390 l 1xb8
 112 390 148 398 192 409 c 1
 203 292 l 1
 218 331 257.993 406 331 406 c 0xd8
EndSplineSet
EndChar
StartChar: s
Encoding: 115 115 93
Width: 390
Flags: W
HStem: -13 19<131.144 263.466> 394 16<151.559 268.528>
VStem: 60 296<82.5 135 119 135 135 135> 60 16<66.94 133> 66 68<280.399 356.206> 286 70<36.1484 122.344> 306 17<278 352.146 372 401>
Fore
194 -13 m 0xe0
 149 -13 85 26 85 26 c 1
 80 -2 l 1
 62 -2 l 1
 62 -2 61 82.5 60 135 c 1xe0
 76 133 l 1
 82 80 117 6 194 6 c 0
 256 6 286 34 286 80 c 0xd4
 286 124 223.831 156.425 170 176 c 0
 115 196 66 222 66 284 c 0
 66 364 125 410 212 410 c 0
 274 410 304 372 304 372 c 1
 307 401 l 1
 325 401 l 1
 323 278 l 1
 306 278 l 1
 302 315 295 394 202 394 c 0
 161.5 394 134 364.5 134 326 c 0xca
 134 265.992 201.646 257.158 249 236 c 0
 296 215 356 179 356 119 c 0
 356 25 305 -13 194 -13 c 0xe0
EndSplineSet
EndChar
StartChar: t
Encoding: 116 116 94
Width: 378
Flags: W
HStem: -7 26<228.473 304.603> 377 13<51 127.013> 377 25<213 316>
VStem: 133 80<31.7284 377> 192 19<458.661 513.749 513.749 540>
Fore
316 377 m 1xa8
 213 377 l 1
 213 260.938 213 142.5 213 111 c 0
 213 56.917 230 19 262 19 c 0
 298 19 318 52 336 101 c 1
 357 90 l 1
 339 42 319 -7 246 -7 c 0
 209 -7 176.5 4.5 157.5 25.5 c 0
 138.5 46.5 133 79 133 146 c 2
 133 377 l 1xb0
 51 377 l 1
 51 390 l 1xd0
 79.5 390 137.5 410 154.5 432 c 0
 167.755 449.153 192 495 192 540 c 1
 215 540 l 1
 211.429 513.214 210.918 480.306 210.918 444.373 c 0
 210.918 430 211 415.143 211 400 c 1
 322 402 l 1
 316 377 l 1xa8
EndSplineSet
EndChar
StartChar: u
Encoding: 117 117 95
Width: 542
Flags: W
HStem: -15 411<201 391 234.503 357.626> -11 28<218.287 304.244> 4 12<484.815 524> 370 16<60 103.108 328 365.563>
VStem: 60 464<16 386 419.503 542.626> 118 81<33.9313 127 127 362> 386 78<144 177.503 177.503 300.626>
Fore
60 386 m 1x58
 97.333 386 157 388 201 396 c 1x88
 199 129 l 2
 200 82 209 17 252 17 c 0
 332 17 386 144 386 144 c 1
 386 358 l 1
 371.333 367.333 354 370 328 370 c 1
 328 386 l 1x56
 370 386 441 390 472 396 c 1
 472 396 465.436 277.711 464 202 c 16x86
 463.715 186.984 463.604 170.103 463.604 152.905 c 0
 463.604 91.9453 465 27 465 27 c 1
 474 19.333 496.667 16.667 524 16 c 1
 524 4 l 1x28
 485 2 426 -6 391 -15 c 1x88
 384 92 l 1
 384 92 318 -11 240 -11 c 0
 145 -11 118.354 44.001 118 127 c 2x44
 117 362 l 1
 103.333 368.667 82.667 370 60 370 c 1
 60 386 l 1x58
EndSplineSet
EndChar
StartChar: v
Encoding: 118 118 96
Width: 540
Flags: W
HStem: 372 14<32 54.8915 54.8915 94.4193 222.887 233.684 233.684 252 354 374.914 374.914 383.609 450.534 487.61 487.61 508 30 510 32 32>
Fore
254 386 m 1
 252 372 l 1
 226.54 372 198.732 366.364 198.732 344.449 c 0
 198.732 340.254 199.751 335.462 202 330 c 2
 308 70 l 1
 404 330 l 2
 406.067 335.597 406.996 340.432 406.996 344.612 c 0
 406.996 369.418 374.251 371.144 352 372 c 1
 354 386 l 1
 371.482 383.638 399.009 382.615 427.089 382.615 c 0
 458.44 382.615 490.482 383.89 510 386 c 5
 508 372 l 1
 463 372 449.27 357.703 434 318 c 2
 310 -10 l 1
 258 -10 l 1
 106 332 l 2
 92.3643 362.68 73 370 30 372 c 1
 32 386 l 1
 69.6729 384.177 117.314 381.247 164.829 381.247 c 0
 195.512 381.247 226.141 382.469 254 386 c 1
EndSplineSet
EndChar
StartChar: w
Encoding: 119 119 97
Width: 773
Flags: W
HStem: -10 399<555 593 223.024 265.228> 372.038 10.5771<38 97.5913 223.024 265.228 265.228 266 593 608.415 608.415 611.134 691.948 731.217 731.217 746>
Fore
459 387 m 1x40
 480 314 l 1
 557 70 l 1
 647 331 l 2
 647.96 333.881 648.404 336.606 648.404 339.178 c 0
 648.404 363.386 609.079 374.096 591 375 c 1
 593 389 l 1
 615.6 385.634 643.518 384.118 670.64 384.118 c 0
 699.92 384.118 728.271 385.885 748 389 c 1
 746 375 l 1
 708 372 678.399 348.256 669 321 c 2
 555 -10 l 1
 509 -10 l 1
 402 282 l 1
 289 -10 l 1
 244 -10 l 1x80
 131 314 l 2
 118 353 74 368 36 370 c 1
 38 386 l 1
 78.6191 383.89 124.248 382.615 166.812 382.615 c 0
 204.933 382.615 240.596 383.638 268 386 c 1
 266 372 l 1
 265.495 372.025 264.98 372.038 264.454 372.038 c 0
 245.919 372.038 215.131 356.486 215.131 335.967 c 0
 215.131 334.02 215.409 332.028 216 330 c 2
 292 70 l 1
 388 316 l 1
 410 387 l 1
 459 387 l 1x40
EndSplineSet
EndChar
StartChar: x
Encoding: 120 120 98
Width: 528
Flags: W
HStem: -2 14<46 65.0243 65.0243 69.8507 192.882 200.524 200.524 220 300 319.215 319.215 349.11 456.884 510 44 514 46 46> 372 14<64 96.2323 232.159 266 340 358.074 358.074 383.227 453.823 464.446 464.446 486>
Fore
300 -2 m 1
 300 12 l 1
 334.667 12 349.121 25.2471 349.121 32.7451 c 0
 349.121 41.4502 341.066 48.8691 336 59 c 1
 260 165 l 1
 185 72 l 2
 174.705 59.2334 170.365 48.5098 170.365 38.9629 c 0
 170.365 14.7402 204.977 12 222 12 c 1
 220 -2 l 1
 196 0 164.75 1 133.125 1 c 0
 101.5 1 69.5 0 44 -2 c 1
 46 12 l 1
 64 12 91.4561 20.8496 102 27 c 0
 114 34 133.983 48.8857 155 73 c 2
 250 182 l 1
 142 330 l 2
 130 347 113 360 113 360 c 1
 94 371 93 371 64 372 c 1
 64 386 l 1
 97.4668 382.281 134.39 380.723 168.745 380.723 c 0
 208.301 380.723 244.452 382.789 268 386 c 1
 266 372 l 1
 234 371.333 224.814 360.338 224.814 352.564 c 0
 224.814 342.754 232 330 232 330 c 2
 300 229 l 1
 375 322 l 2
 381.325 329.842 383.546 338.231 383.546 345.505 c 0
 383.546 356.705 379.778 372 338 372 c 1
 340 386 l 1
 364.21 383.799 390.552 382.954 414.76 382.954 c 0
 445.548 382.954 472.885 384.321 488 386 c 1
 486 372 l 1
 468 372 455 370 444 365 c 0
 433.038 360.017 414.577 343.412 407 334 c 10
 312 216 l 1
 416 74 l 2
 425 61 437.526 45.6123 456 32 c 0
 475 18 485 13 514 12 c 1
 510 -2 l 1
 473 0 432 1 394.5 1 c 0
 357 1 323 0 300 -2 c 1
EndSplineSet
EndChar
StartChar: y
Encoding: 121 121 99
Width: 536
Flags: W
HStem: -224 28<115.167 188.452> 372 14<34 59.5652 59.5652 62.1236 216.798 252 359 403.778 499.967 523>
VStem: 30 495<-148 388 -342.435 -339.876> 30 116<-173.933 -97.875>
Fore
254 386 m 1xd0
 252 372 l 1
 223 372 210.107 367.075 210.107 347.374 c 0
 210.107 339.07 212.834 329.499 216 320 c 2
 314 70 l 1
 420 314 l 2
 425.116 325.806 427.376 335.249 427.376 342.803 c 0
 427.376 372.992 391.268 373 357 373 c 1
 359 387 l 1
 379.242 384.405 413.763 382.618 447.18 382.618 c 0
 478.147 382.618 508.166 384.152 525 388 c 1
 523 374 l 1
 505 374 483 372 477 366 c 0
 468 358 452 326 445 308 c 2
 270 -110 l 2
 258 -139 238 -171 214 -192 c 0
 188 -214 157 -224 125 -224 c 4
 85 -224 30 -194 30 -148 c 0xe0
 30 -104 58 -87 83 -87 c 0
 110 -87 146 -100 146 -135 c 0
 146 -155 131 -175 107 -185 c 1
 117 -193 134.847 -196 148 -196 c 4
 165 -196 188 -175 197 -167 c 0
 231 -135 262 -50 273 -17 c 1
 124 328 l 2
 116 347 100 358 90 362 c 0
 74 368 45 371 34 372 c 1
 34 386 l 1
 64.4307 383.464 101.649 382.536 137.352 382.536 c 0
 186.121 382.536 232.061 384.268 254 386 c 1xd0
EndSplineSet
EndChar
StartChar: z
Encoding: 122 122 100
Width: 455
Flags: W
HStem: 0 30<163 364.149> 365 27<120.095 340>
VStem: 65 367<40 372 -113 279> 82 21<257 350.1> 403 18<104.318 153 0 392 153 153>
Fore
87 390 m 1xd0
 428 392 l 1
 432 372 l 1xe0
 392 325 178 71 163 27 c 1
 322 30 l 2
 361.993 30.7549 399 72 403 153 c 1
 421 153 l 1xc8
 410 0 l 1
 68 0 l 1
 65 40 l 1xe0
 124 108 339.329 366.755 340 368 c 1
 148 365 l 2
 106.761 364.355 107 296 103 257 c 1
 82 257 l 1
 87 390 l 1xd0
EndSplineSet
EndChar
StartChar: braceleft
Encoding: 123 123 101
Width: 276
Flags: W
Validated: 1
HStem: -128 26<162 256> 258 38<22 101> 646 22<162 256>
VStem: 101 61<-102 258 296 646>
Fore
101 258 m 1
 22 258 l 1
 22 296 l 1
 101 296 l 1
 101 668 l 1
 256 668 l 1
 256 646 l 1
 162 646 l 1
 162 -102 l 1
 256 -102 l 1
 256 -128 l 1
 101 -128 l 1
 101 258 l 1
EndSplineSet
EndChar
StartChar: bar
Encoding: 124 124 102
Width: 302
Flags: W
Validated: 1
VStem: 124 54<-150 717>
Fore
124 717 m 1
 178 717 l 1
 178 -150 l 1
 124 -150 l 1
 124 717 l 1
EndSplineSet
EndChar
StartChar: braceright
Encoding: 125 125 103
Width: 276
Flags: W
Validated: 1
HStem: -128 26<31 125> 258 38<186 261> 646 22<31 125>
VStem: 31 230<-128 296 -478 -128> 125 61<-102 258 296 646>
Fore
186 668 m 1xe8
 186 296 l 1xe8
 261 296 l 1
 261 258 l 1xf0
 186 258 l 1
 186 -128 l 1xe8
 31 -128 l 1
 31 -102 l 1xf0
 125 -102 l 1
 125 646 l 1xe8
 31 646 l 1
 31 668 l 1xf0
 186 668 l 1xe8
EndSplineSet
EndChar
StartChar: Ccedilla
Encoding: 199 199 106
Width: 680
Flags: W
Validated: 5
HStem: -188 187<379 398 331 376 376 376> -188 21<333 412.291> -85 33<379 420.232> -22 30<297.364 493.251 297.364 493.251> 599 27<293.029 492.805 293.029 492.805>
VStem: 54 129<172.992 423.681 172.992 423.681> 331 136 423.102 43.898<-147.161 -91.795> 591 31<577.861 633 577.861 633>
Fore
376 -1 m 29x8d80
 398 -2 l 29
 379 -52 l 21
 455 -52 467 -72.3662 467 -103 c 4x2d80
 467 -143 412 -188 331 -188 c 13x8e80
 333 -167 l 21
 389.617 -167 423.102 -157.376 423.102 -114.658 c 4
 423.102 -87 373.5 -85 340 -85 c 13x6d80
 376 -1 l 29x8d80
EndSplineSet
Refer: 45 67 S 1 0 0 1 0 0 2
Refer: 45 67 S 1 0 0 1 0 0 2
EndChar
StartChar: ccedilla
Encoding: 231 231 117
Width: 424
Flags: W
HStem: -188 187<236 255 188 233 233 233> -188 21<190 269.291> -85 33<236 277.232> -15 33<201.257 327.274> 388 17<199.094 326.506>
VStem: 50 88<93.3086 299.78> 188 136 280.102 43.8984<-147.16 -91.795> 290 113<232.5 304.31>
Fore
233 -1 m 29x8d
 255 -2 l 29
 236 -52 l 21
 312 -52 324 -72.3662 324 -103 c 4x2d
 324 -143 269 -188 188 -188 c 13x8e
 190 -167 l 21
 246.617 -167 280.102 -157.376 280.102 -114.657 c 4
 280.102 -87 230.5 -85 197 -85 c 13x6d
 233 -1 l 29x8d
EndSplineSet
Refer: 77 99 N 1 0 0 1 0 0 2
EndChar
StartChar: sterling
Encoding: 163 163 136
Width: 500
Flags: W
Validated: 1
HStem: -92 76<300.789 419.406> -61 39<101.586 169.179> 71 31<101.027 156.417> 135.163 34.85<54 171.512 296.16 402> 211.769 32.231<54 116.786 248.722 402> 421 31<223.954 362.491>
VStem: 45 51<-16.7969 67.9367> 107 83<256.629 375.937> 240 57<45.182 131.079> 407 32<323.043 381.253> 451.136 34.144<16.5773 89.9585 89.0468 90.8704 90.8704 100>
Fore
130 71 m 0x7fe0
 116.4 71 96 59.5 96 22 c 0
 96 -9 116 -22 144 -22 c 0
 172 -22 193 -15 209 6 c 1
 196.812 20.626 178.54 42.3632 164 54 c 0
 148.716 66.2324 139.238 71 130 71 c 0x7fe0
134.412 211.769 m 1
 54 212 l 1
 54 244 l 1
 116.786 245.083 l 1
 110.685 260.922 107 278.497 107 298 c 0
 107 408 203.5 452 281 452 c 0
 371 452 434 407 439 325 c 1
 407 320 l 1
 393 398 341 421 287 421 c 0
 228 421 190 384 190 313 c 0
 190 289.569 202.339 267.867 218.636 246.839 c 1
 402 250 l 1
 402 211 l 1
 248.722 211.44 l 1
 260.511 198.012 271.958 184.615 280.745 170.955 c 1
 402 172 l 1
 402 133 l 1
 296.16 134.217 l 1
 296.71 130.841 297 127.437 297 124 c 0
 297 60.8701 275 45 253 18 c 1
 285 -8 311 -16 349 -16 c 0
 405.239 -16 451.136 15.0264 451.136 77.9922 c 0
 451.136 84.5908 450.197 95.5967 450 100 c 1
 481 108 l 1
 481 96 485.28 85.6396 485.28 73.8965 c 0
 485.28 -47.7354 435.768 -92 366 -92 c 0xbfe0
 318 -92 258 -45 220 -9 c 1
 204 -28 192.92 -37.3506 175 -47 c 0
 160.908 -54.5879 146.57 -61 125 -61 c 0
 65.6194 -61 45 -7 45 16 c 0
 45 56.8047 71.3358 102 131 102 c 0
 173 102 204.5 70 230 37 c 1
 238.909 50.3633 240 61 240 75 c 0
 240 105.429 231.782 119.545 213.84 135.163 c 1
 54 137 l 1
 54 169 l 1
 171.512 170.013 l 1
 158.525 181.815 145.401 195.619 134.412 211.769 c 1
EndSplineSet
EndChar
StartChar: section
Encoding: 167 167 137
Width: 364
Flags: W
Validated: 1
HStem: -234 20<114.808 247.657> 414 16<127.313 246.96>
VStem: 38 304<-86 145 -122.067 -11.156> 38 23<-152.542 -87> 45 68<58.0661 137.144 297.941 376.275> 270 72<-177.545 -70.1137 63.9334 174.844>
Fore
143 185 m 1xcc
 90 201 45 243 45 304 c 0
 45 384 104 430 191 430 c 0
 253 430 281 392 281 392 c 1
 284 421 l 1
 313 421 l 1
 305 298 l 1
 283 298 l 1
 279 335 274 414 181 414 c 0
 137 414 113 392 113 346 c 0xcc
 113 285.992 168 283 217 266 c 0
 291 240 342 211 342 145 c 0
 342 75 310 32 247 15 c 1
 305 -9 342 -39 342 -95 c 0
 342 -189 285 -234 173 -234 c 0
 128 -234 69 -194 69 -194 c 1
 58 -222 l 1
 42 -222 l 1
 42 -222 40.5 -139.5 38 -86 c 1xe0
 61 -87 l 1xd0
 67 -140 101 -214 178 -214 c 4
 240 -214 270 -186 270 -140 c 4
 270 -96 201 -72 146 -56 c 0
 91 -40 45 2 45 64 c 0
 45 128 83 171 143 185 c 1xcc
270 100 m 0
 270 136 225 158 178 174 c 1
 136 173 113 144 113 106 c 0
 113 50.9909 160 44 205 30 c 1
 250 36 270 61 270 100 c 0
EndSplineSet
EndChar
StartChar: registered
Encoding: 174 174 138
Width: 500
Flags: W
Validated: 1
HStem: -31 24<156.982 339.018> 198 13<218 249 273 278.371> 336 12<219.191 230.513 230.513 256.094 256.094 294.829> 413 24<156.982 339.018>
VStem: 14 24<111.982 294.018> 171 47<85.8784 87 87 94.7924 94.7924 198 211 322> 303 48<241.166 324.366> 458 24<111.982 294.018>
Fore
248 437 m 0
 377 437 482 332 482 203 c 0
 482 74 377 -31 248 -31 c 0
 119 -31 14 74 14 203 c 0
 14 332 119 437 248 437 c 0
248 413 m 0
 132 413 38 319 38 203 c 0
 38 87 132 -7 248 -7 c 0
 364 -7 458 87 458 203 c 0
 458 319 364 413 248 413 c 0
378 54 m 1
 308 54 l 1
 303 102 304 104 298 126 c 0
 290 158 274.489 196.146 248 197 c 2
 217 198 l 1
 218 101 l 2
 218 90 219 83 234 78 c 0
 243 75 255 71 255 71 c 1
 254 54 l 1
 239 55 215.75 55.5 192.5 55.5 c 0
 169.25 55.5 146 55 131 54 c 1
 131 71 l 1
 131 71 167 76 169 87 c 0
 169 89 171 92 171 103 c 2
 171 322 l 1
 169 330 137 337 137 337 c 1
 137 350 l 1
 188 350 243 348 271 348 c 0
 306 348 351 322 351 274 c 0
 350 245 317 209 273 207 c 1
 324 203 327 160 342 120 c 0
 357.637 76.998 361.5 76.5 378 72 c 1
 378 54 l 1
303 274 m 0
 303 304.5 292.5 334 269 334 c 0
 261.238 334 252.25 336.5 243.125 336.5 c 0
 234 336.5 225 336 218 336 c 1
 218 211 l 1
 249 210 l 2
 292 210 303 252 303 274 c 0
EndSplineSet
EndChar
StartChar: copyright
Encoding: 169 169 139
Width: 500
Flags: W
Validated: 1
HStem: -31 24<156.982 339.018> 37 23<193.502 324.674> 327 21<193.886 330.498> 413 24<156.982 339.018>
VStem: 14 24<111.982 294.018> 97 62<105.954 274.58> 356 15<254 300.037 333.081 351> 458 24<111.982 294.018>
Fore
259 348 m 0
 298 348 334 333 343 322 c 1
 355 329 355 336 357 351 c 1
 372 351 l 1
 371 254 l 1
 371 254 361 254 356 254 c 1
 349 303 317 327 253 327 c 0
 185 327 159 276 159 194 c 0
 159 123 176 60 258 60 c 0
 322 60 337 89 356 133 c 1
 356 133 370 128 375 125 c 1
 357 82 326 37 258 37 c 0
 167 37 97 89 97 191 c 0
 97 313 198 348 259 348 c 0
248 437 m 0
 377 437 482 332 482 203 c 0
 482 74 377 -31 248 -31 c 0
 119 -31 14 74 14 203 c 0
 14 332 119 437 248 437 c 0
248 413 m 0
 132 413 38 319 38 203 c 0
 38 87 132 -7 248 -7 c 0
 364 -7 458 87 458 203 c 0
 458 319 364 413 248 413 c 0
EndSplineSet
EndChar
StartChar: acute
Encoding: 180 180 140
Width: 412
Flags: W
Validated: 1
HStem: 446 159<126 280 280 280>
VStem: 115 196<464 559 464 464>
Fore
115 464 m 1
 280 605 l 1
 311 559 l 1
 126 446 l 1
 115 464 l 1
EndSplineSet
EndChar
StartChar: dieresis
Encoding: 168 168 141
Width: 412
Flags: W
Validated: 1
HStem: 479 67<98.3946 155.605 246.895 304.105>
VStem: 96.5 61<480.424 544.576> 245 61<480.424 544.576>
Fore
96.5 512 m 0
 96.5 532 110.5 546 126.5 546 c 0
 143.5 546 157.5 532 157.5 513 c 0
 157.5 493 143.5 479 127.5 479 c 0
 110.5 479 96.5 493 96.5 512 c 0
245 512 m 0
 245 532 259 546 275 546 c 0
 292 546 306 532 306 513 c 0
 306 493 292 479 276 479 c 0
 259 479 245 493 245 512 c 0
EndSplineSet
EndChar
StartChar: AE
Encoding: 198 198 142
Width: 890
Flags: W
Validated: 1
HStem: -5 20<37 37.2396 37.2396 63.5053 207.214 253 368 444.02> 3.38329 22.6167<552.463 631.337 631.337 701.854 701.854 731> 290 23<302 456 551 718.433> 370 20G<731 755> 589 20.312<550.708 723.976>
VStem: 456 95<126.045 290 313 448.739 448.739 582> 736 19<215 276.342 323.608 390>
Fore
456 313 m 1x3e
 457.5 582 l 1
 386.5 456 415 526 302 313 c 1
 456 313 l 1x3e
368 0 m 1
 368 16 l 1
 368 16 443 20 448 44 c 0
 452 66 454 181 456 290 c 1
 291 290 l 1
 163.5 72 l 1
 162.514 69.4443 151.551 51.0588 151.551 48.8325 c 0
 151.551 20.5725 226.191 17.927 254 17 c 1
 253 -1 l 1
 37 -5 l 1
 37 15 l 1xbe
 37 15 37.1696 14.9965 37.4942 14.9965 c 0
 42.6886 14.9965 87.5882 15.8824 113 46 c 0
 135 72 356 459 443 611 c 1
 491 609.875 537.312 609.312 582.887 609.312 c 0
 658.844 609.312 732.75 610.875 809 614 c 1
 812 473 l 1
 793 473 l 1
 785 509 758 589 692 589 c 2
 549 589 l 1
 549 376 549 428 551 313 c 1
 683 313 l 2
 720 313 730 354 732 390 c 1
 755 390 l 1
 755 215 l 1
 736 215 l 1
 733 262 714 291 680 291 c 2
 551 291 l 1
 550 26 l 1
 608.902 22.6148 638.009 20.1464 673.011 20.1464 c 0
 689.708 20.1464 707.746 20.7081 731 22 c 1
 762 36 793 99 798 148 c 1
 820 148 l 1
 811 0 l 1
 759.573 2.51742 701.268 3.38329 641.457 3.38329 c 0x7e
 547.016 3.38329 448.817 1.2245 368 0 c 1
EndSplineSet
EndChar
StartChar: infinity
Encoding: 8734 8734 143
Width: 500
Flags: W
Validated: 1
HStem: 91 13<96.8978 201.038 317.588 404.233> 340 13<97.4222 187.46 300.272 408.643>
VStem: 5 67<149.609 292.103> 223 52<170.812 272.695> 429 66<149.836 293.788>
Fore
362 340 m 0
 312 340 275 315 275 242 c 0
 275 173 316 104 360 104 c 0
 406 104 429 150 429 216 c 0
 429 305 409 340 362 340 c 0
5 216 m 0
 5 303 72 353 143 353 c 0
 183 353 231 317 251 274 c 1
 272 320 316 353 362 353 c 0
 423 353 495 312 495 216 c 0
 495 145 428 91 360 91 c 0
 317 91 272 131 251 169 c 1
 237 128 185 91 141 91 c 0
 75 91 5 142 5 216 c 0
143 340 m 0
 93 340 72 289 72 216 c 0
 72 147 97 104 141 104 c 0
 187 104 223 127 223 193 c 0
 223 282 190 340 143 340 c 0
EndSplineSet
EndChar
StartChar: partialdiff
Encoding: 8706 8706 144
Width: 818
Flags: W
Validated: 1
HStem: 0 16<33 75.447 243.73 313.485 495.924 525 570 600.891 600.891 605.75 759.271 786> 369 22<39 121 202 361 442 565> 622 20G<709.5 718.4> 650 15<245.002 364.818 485.335 599.48>
VStem: 121 81<26.4496 206.5 206.5 206.5 206.5 369 391 399.152 399.152 448.068> 357 91<26.8853 43 43 234.417> 360.797 81.203<180.583 369 391 399.152 399.152 420.115 420.115 460.976 430.064 559.441> 636 79.84<23.0809 163.774 163.774 234.634 234.634 439.349 439.349 559.113 559.113 584>
Fore
538 650 m 0xfd
 498 650 466 615 454 588 c 0
 441.2 559.2 439.92 509.28 439.92 473.056 c 0
 439.92 464 440 455.8 440 449 c 0
 440 429 442 416 442 391 c 1
 565 391 l 1
 565 369 l 1
 442 369 l 1xfb
 448 46 l 2
 448.41 23.9426 499.5 21 525 18 c 1
 525 0 l 1
 450.941 2.19434 350.7 3.78678 253.003 3.78678 c 0
 172.611 3.78678 93.9412 2.7085 33 0 c 1
 33 18 l 1
 73 18 117 27 117 44 c 1
 121 369 l 1
 39 369 l 1
 39 391 l 1
 121 391 l 1
 120.863 396.47 120.797 401.908 120.797 407.301 c 0
 120.797 480.778 133.162 545.983 149 573 c 0
 166 602 210 665 301 665 c 0
 335 665 381 645 413 606 c 1
 436 631 482 665 541 665 c 0
 588 665 623 650 650 626 c 1
 675 631 699 636 720 642 c 1
 716.8 569.6 715.84 502.64 715.84 430.56 c 0
 715.84 322.44 718 202.8 718 36 c 1
 721 20 763 20 786 16 c 1
 786 0 l 1
 754.862 3.89231 717.925 5.35313 682.713 5.35313 c 0
 636.506 5.35313 593.268 2.8376 570 0 c 1
 570 16 l 1
 593 17 634 20 636 36 c 0
 638.362 100.729 639.385 196.041 639.385 293.036 c 0
 639.385 401.333 638.11 511.729 636 584 c 1
 623 623 570 650 538 650 c 0xfd
402 593 m 1
 391 623 327 650 298 650 c 0
 258 650 226 615 214 588 c 0
 201.2 559.2 199.92 512.16 199.92 474.784 c 0
 199.92 465.44 200 456.7 200 449 c 0
 200 429 202 416 202 391 c 1
 361 391 l 1
 360.863 396.47 360.797 401.908 360.797 407.301 c 0
 360.797 480.778 373.162 545.983 389 573 c 0
 392 579 397 586 402 593 c 1
361 369 m 1
 202 369 l 1
 208 44 l 2
 208.314 27.0058 246.923 17 273 17 c 0
 292.5 17 357 21.5 357 43 c 1xfd
 361 369 l 1
EndSplineSet
EndChar
StartChar: pi
Encoding: 960 960 145
Width: 500
Flags: W
Validated: 1
HStem: -31 24<156.982 339.018> 58 18<245.98 287> 186 16<248.113 319.373> 325 19<246.737 268.543 268.543 329.037> 413 24<156.982 339.018>
VStem: 14 24<111.982 294.018> 198.889 47.111<81.5 121.539 121.539 142.482 142.482 191 204 259.623 259.623 314> 334 47<214.821 320.042> 458 24<111.982 294.018>
Fore
248 437 m 0
 377 437 482 332 482 203 c 0
 482 74 377 -31 248 -31 c 0
 119 -31 14 74 14 203 c 0
 14 332 119 437 248 437 c 0
248 413 m 0
 132 413 38 319 38 203 c 0
 38 87 132 -7 248 -7 c 0
 364 -7 458 87 458 203 c 0
 458 319 364 413 248 413 c 0
381 269 m 0
 381 223 344 186 281 186 c 0
 255 186 246 191 246 191 c 1
 246 111.925 245.97 107.041 245.97 97.1562 c 0
 245.97 87.4938 260 76 287 76 c 1
 287 58 l 1
 287 58 209 58 159 58 c 1
 159 78 l 1
 159 78 196 82 198 94 c 4
 198.667 100 198.889 119.444 198.889 150.222 c 0
 198.889 211.778 198 298.667 198 314 c 0
 197 324 165 330 165 330 c 1
 165 345 l 1
 216 345 263 344 292 344 c 0
 329 344 381 324 381 269 c 0
334 269 m 0
 334 302 328.5 325 291 325 c 0
 276.858 325 262 326 246 326 c 1
 246 204 l 1
 246 204 255 202 278 202 c 0
 317 202 333 238 334 269 c 0
EndSplineSet
EndChar
StartChar: ae
Encoding: 230 230 146
Width: 680
Flags: W
Validated: 1
HStem: -18 44<145.041 236.974> -17 24<425.703 549.936> 212 15<230.142 295 380 553> 386 18<152.613 267.361 416.503 517.811>
VStem: 40 84<46.7177 163.299> 58 100<261.81 322.77> 294.868 84.106<82 137.093 101.815 201.825 198.277 205.373 205.373 212 229.018 334.033> 554.196 87.047<228.273 270.124 264.383 275.865 275.865 277 308 322.98>
Fore
380 227 m 1x33
 553 228 l 1
 553.732 238.249 554.196 248.765 554.196 259.06 c 0
 554.196 276.89 552.804 294.053 549 308 c 0
 539 347 507 379 459 379 c 0
 410 379 385 318 380 227 c 1x33
310 71 m 1
 291 28 220 -17 159 -18 c 0
 102 -18 40 20 40 105 c 0xbb
 40 231 259 227 295 229 c 1
 295 229 296 254 296 293 c 0
 296 346 261 386 198 386 c 0
 156 386 135 363 130 343 c 5
 155 343 158 314 158 297 c 0
 158 272 129 251 106 251 c 0
 81 251 58 278 58 306 c 0
 58 337 84 361 104 376 c 0
 140 403 183 404 207 404 c 0
 257 404 312 384 342 344 c 1
 383 383 435 397 480 397 c 0
 538 397 618 371 637 277 c 0
 639.121 267.1 641.243 255.701 641.243 238.205 c 0
 641.243 230.958 640.879 222.665 640 213 c 1
 379 212 l 1
 379 190.729 378.974 188.07 378.974 185.412 c 0
 378.974 97.7997 407.219 7.00001 477 7 c 0
 565 7 602 79 613 109 c 1
 640 90 l 1
 627 58 579 -17 473 -17 c 0x77
 388 -17 343 23 310 71 c 1
299 82 m 1
 299 122 294.868 147.124 294.868 198.694 c 0
 294.868 203.851 294.909 209.273 295 215 c 1
 203 205 124 201 124 116 c 0
 124 54 154 26 198 26 c 0
 239.195 26 286 58 299 82 c 1
EndSplineSet
EndChar
StartChar: questiondown
Encoding: 191 191 147
Width: 500
Flags: W
Validated: 1
HStem: -21 21<200.821 315.011> 94 112<312.96 363> 430 20<158.171 263.208> 520 113<179.305 272.51>
VStem: 61 94<61.0333 194.887> 168 115<530.378 622.238> 274 53<318.412 409.751> 300 128<105.763 186.659>
Fore
117 346 m 1xfa
 95 360 l 1
 107 392 139 450 223 450 c 0
 263 450 327 410 327 362 c 0
 327 314 305 290 274 271 c 0xfa
 228 242 155 206 155 130 c 0
 155 50 200 0 265 0 c 0
 313 0 357 59 363 94 c 5
 333 96 300 108 300 146 c 4
 300 179 322 206 363 206 c 4
 411 206 428 158 428 128 c 4xf9
 428 82 357 -21 258 -21 c 0
 189 -21 61 12.996 61 138 c 0
 61 196 105 238 153 262 c 0
 173 272 274 304 274 365 c 0
 274 405.012 256 430 221 430 c 0
 164 430 131 388 117 346 c 1xfa
283 576 m 0xfc
 283 540 258 520 224 520 c 0
 190 520 168 540 168 576 c 0
 168 612 193 633 227 633 c 0
 261 633 283 612 283 576 c 0xfc
EndSplineSet
EndChar
StartChar: exclamdown
Encoding: 161 161 148
Width: 416
Flags: W
Validated: 1
HStem: 463 121<176.338 266.033>
VStem: 146.201 129.799<14.5186 523 14.5186 14.5186> 160 116<477.996 567.999>
Fore
236 380 m 1xc0
 236 380 252 183 266 18 c 0
 266.061 17.2635 266.092 16.5439 266.092 15.841 c 0
 266.092 -6.36261 235.865 -12 200 -12 c 0
 155.385 -12 146.201 -1.37098 146.201 14.5186 c 0
 146.201 63.4441 199.889 379.221 200 380 c 1
 236 380 l 1xc0
220 463 m 0
 181 463 160 499 160 523 c 0xa0
 160 547 184 584 217 584 c 0
 250 584 276 570 276 523 c 0
 276 482.988 258 463 220 463 c 0
EndSplineSet
EndChar
StartChar: ellipsis
Encoding: 8230 8230 149
Width: 649
Flags: W
Validated: 1
HStem: -12 147<81.1237 187.816 273.124 379.816 463.124 569.816>
VStem: 59 148<9.53788 112.914> 251 148<9.53788 112.914> 441 148<9.53788 112.914>
Fore
513 135 m 0
 543 135 589 119.037 589 65 c 0
 589 10 559 -12 516 -12 c 0
 470 -12 441 24 441 62 c 0
 441 110.042 483 135 513 135 c 0
131 135 m 0
 161 135 207 119.037 207 65 c 0
 207 10 177 -12 134 -12 c 0
 88 -12 59 24 59 62 c 0
 59 110.042 101 135 131 135 c 0
323 135 m 0
 353 135 399 119.037 399 65 c 0
 399 10 369 -12 326 -12 c 0
 280 -12 251 24 251 62 c 0
 251 110.042 293 135 323 135 c 0
EndSplineSet
EndChar
StartChar: oe
Encoding: 339 339 154
Width: 432
Flags: W
Validated: 1
HStem: -17 25<186.56 307.574 485.897 610.68> 212 15<436 612> 379 18<474.486 576.811> 388 19<186.028 299.943>
VStem: 40 90<87.6471 297.509> 359 76<75.9189 212 227 305.793> 612 88.243<228.065 243.529 235.797 282.522>
Fore
390 73 m 1xee
 357 31 315 -17 245 -17 c 0
 109 -17 40 58 40 207 c 0
 40 328 142 407 237 407 c 0xde
 305 407 354 355 392 308 c 1
 434 360 488 397 539 397 c 0
 597 397 677 371 696 277 c 0
 698.121 267.1 700.243 255.701 700.243 238.205 c 0
 700.243 230.958 699.879 222.665 699 213 c 1
 435 212 l 1
 435 205 435 198 435 190 c 0
 435 108 465 7 536 7 c 0
 624 7 661 79 672 109 c 1
 699 90 l 1
 686 58 638 -17 532 -17 c 0
 470 -17 426 26 390 73 c 1xee
612 228 m 1
 612.732 238.249 613.196 248.765 613.196 259.06 c 0
 613.196 276.89 611.804 294.053 608 308 c 0
 598 347 566 379 518 379 c 0xee
 469 379 441 318 436 227 c 1
 612 228 l 1
359 197 m 0
 359 292 318 388 246 388 c 0xde
 149 388 130 272 130 190 c 0
 130 85 172 8 248 8 c 0
 318 8 359 74 359 197 c 0
EndSplineSet
EndChar
StartChar: endash
Encoding: 8211 8211 155
Width: 520
Flags: W
Validated: 1
HStem: 188 52<34 486>
VStem: 34 452<188 240 188 240 188 188>
Fore
34 240 m 1
 486 240 l 1
 486 188 l 1
 34 188 l 1
 34 240 l 1
EndSplineSet
EndChar
StartChar: emdash
Encoding: 8212 8212 156
Width: 1020
Flags: W
Validated: 1
HStem: 190 52<33 986>
VStem: 33 953<190 242 190 242 190 190>
Fore
33 242 m 1
 986 242 l 1
 986 190 l 1
 33 190 l 1
 33 242 l 1
EndSplineSet
EndChar
StartChar: quotedblleft
Encoding: 8220 8220 157
Width: 456
Flags: W
Validated: 1
HStem: 415 147<115.987 182.423 316.987 383.423>
VStem: 56 149<441.8 541.421> 257 149<441.8 541.421>
Fore
338 562 m 4
 378 562 406 525 406 488 c 4
 406 439.958 363 415 333 415 c 4
 303 415 257 443.963 257 498 c 4
 257 580.5 323 640 370 646 c 5
 373.5 640 378 631 378 631 c 5
 357 622.5 299 583 296 547 c 5
 312 557 318.895 562 338 562 c 4
137 562 m 4
 177 562 205 525 205 488 c 4
 205 439.958 162 415 132 415 c 4
 102 415 56 443.963 56 498 c 4
 56 580.5 122 640 169 646 c 5
 172.5 640 177 631 177 631 c 5
 156 622.5 98 583 95 547 c 5
 111 557 117.895 562 137 562 c 4
EndSplineSet
EndChar
StartChar: quotedblright
Encoding: 8221 8221 158
Width: 456
Flags: W
Validated: 1
HStem: 499 147<78.5769 145.013 279.577 346.013>
VStem: 56 149<519.579 619.2> 257 149<519.579 619.2>
Fore
124 499 m 0
 84 499 56 536 56 573 c 0
 56 621.042 99 646 129 646 c 0
 159 646 205 617.037 205 563 c 0
 205 480.5 139 421 92 415 c 1
 88.5 421 84 430 84 430 c 1
 105 438.5 163 478 166 514 c 1
 150 504 143.105 499 124 499 c 0
325 499 m 0
 285 499 257 536 257 573 c 0
 257 621.042 300 646 330 646 c 0
 360 646 406 617.037 406 563 c 0
 406 480.5 340 421 293 415 c 1
 289.5 421 285 430 285 430 c 1
 306 438.5 364 478 367 514 c 1
 351 504 344.105 499 325 499 c 0
EndSplineSet
EndChar
StartChar: quoteleft
Encoding: 8216 8216 159
Width: 249
Flags: W
Validated: 1
HStem: 415 147<115.987 182.423>
VStem: 56 149<441.8 541.421>
Fore
137 562 m 0
 177 562 205 525 205 488 c 0
 205 439.958 162 415 132 415 c 0
 102 415 56 443.963 56 498 c 0
 56 580.5 122 640 169 646 c 1
 172.5 640 177 631 177 631 c 1
 156 622.5 98 583 95 547 c 1
 111 557 117.895 562 137 562 c 0
EndSplineSet
EndChar
StartChar: quoteright
Encoding: 8217 8217 160
Width: 249
Flags: W
Validated: 1
HStem: 499 147<78.5769 145.013>
VStem: 56 149<519.579 619.2>
Fore
124 499 m 0
 84 499 56 536 56 573 c 0
 56 621.042 99 646 129 646 c 0
 159 646 205 617.037 205 563 c 0
 205 480.5 139 421 92 415 c 1
 88.5 421 84 430 84 430 c 1
 105 438.5 163 478 166 514 c 1
 150 504 143.105 499 124 499 c 0
EndSplineSet
EndChar
StartChar: divide
Encoding: 247 247 161
Width: 500
Flags: W
Validated: 1
HStem: 50 91<202.909 258.051> 184 60<45 464> 295 91<202.909 258.051>
VStem: 196 88<55.5237 134.461 300.524 379.461>
Fore
238 386 m 0
 257 386 284 378.015 284 344 c 0
 284 315 271 295 238 295 c 0
 210 295 196 321 196 342 c 0
 196 370 221 386 238 386 c 0
45 244 m 1
 464 244 l 1
 464 184 l 1
 45 184 l 1
 45 244 l 1
238 141 m 0
 257 141 284 133.015 284 99 c 0
 284 70 271 50 238 50 c 0
 210 50 196 76 196 97 c 0
 196 125 221 141 238 141 c 0
EndSplineSet
EndChar
StartChar: currency
Encoding: 164 164 164
Width: 500
Flags: W
Validated: 1
HStem: -9 19<38 117.84 223.258 375.195> 198 44<38 125.044 219 394> 295 44<38 126.354 219 394> 393 21G<409 432> 509 22<221.41 344.203> 517 17<51 118.425>
VStem: 126.354 92.646<80.6741 198 242 268.503 268.503 295 339 347.534 347.534 490.545>
Fore
219 58 m 2xfa
 219 34 227 10 253 10 c 0
 340 10 340 10 340 10 c 2
 374 12 426 93 432 148 c 1
 454 148 l 1
 431 -9 l 1
 38 -9 l 1
 38 7 l 1
 38 7 115.745 13.6651 118 29 c 0
 121.016 49.5131 123.527 118.794 125.044 198 c 1
 38 198 l 1
 38 242 l 1
 125.771 242 l 1
 126.017 259.664 126.214 277.463 126.354 295 c 1
 38 295 l 1
 38 339 l 1
 126.588 339 l 1
 126.602 344.762 126.609 350.455 126.609 356.061 c 0
 126.609 426.189 125.515 482.019 123 491 c 0
 120 508 51 517 51 517 c 1
 51 534 l 1xf6
 120 532 187.75 531 251.625 531 c 0xfa
 315.5 531 375.5 532 429 534 c 1xf6
 432 393 l 1
 413 393 l 1
 405 429 378 509 312 509 c 2
 219 509 l 1
 219 339 l 1
 394 339 l 1
 394 295 l 1
 219 295 l 1
 219 242 l 1
 394 242 l 1
 394 198 l 1
 219 198 l 1
 219 58 l 2xfa
EndSplineSet
EndChar
StartChar: fi
Encoding: 64257 64257 165
Width: 555
Flags: W
Validated: 1
HStem: 0 18<33 82.7956 252.048 285 334 364.647 514.816 542> 369 22<39 121 202 391.412> 650 15<247.011 383.471>
VStem: 117 91<27.6108 44 44 234.417> 121 81<180.583 369 391 398.869 398.869 420.115 409.492 547.701> 369 111<507.353 585.053> 396 80<24.656 208.649 208.649 364>
Fore
480 570 m 0xec
 480 528 470 493 424 493 c 0
 398 493 369 522 369 550 c 0xec
 369 580 405 595 405 595 c 1
 403 630 350 650 318 650 c 0
 198 650 202 533 200 449 c 0
 200 429 202 416 202 391 c 1
 353 391 l 2
 397 391 442 400 476 412 c 1
 474 243 474 318 474 40 c 1
 475.5 25.5 525 16 542 16 c 1
 542 0 l 1
 517.206 2.1101 476.829 3.38535 435.694 3.38535 c 0
 398.853 3.38535 361.404 2.36237 334 0 c 1
 334 16 l 1
 360 17 394.5 22.5 396 40 c 1
 396 364 l 1
 390 366 385 368 380 369 c 1
 202 369 l 1xea
 208 46 l 17
 208.342 27.4697 258 18 285 18 c 1
 285 0 l 1
 246.5 3 199.5 4.5 154.125 4.5 c 0
 108.75 4.5 65 3 33 0 c 1
 33 18 l 1
 73 18 117 30 117 44 c 1xf0
 121 369 l 1
 39 369 l 1
 39 391 l 1
 121 391 l 1
 120.884 396.246 120.824 401.494 120.824 406.738 c 0
 120.824 537.44 158.518 665 321 665 c 0
 371 665 480 625 480 570 c 0xec
EndSplineSet
LCarets2: 1 0 
Ligature2: "'liga' Standard Ligatures lookup 0 subtable" f i
EndChar
StartChar: fl
Encoding: 64258 64258 166
Width: 584
Flags: W
Validated: 1
HStem: 0 16<33 88.5469 255.842 285 340 365.096 529.271 556> 369 22<39 121 202 315> 622 20G<473 488.505> 650 15<248.292 367.754>
VStem: 117 91<28.6796 208 208 234.833> 121 81<181.167 369 391 397.628 397.628 420.115 408.872 540.464> 406 82<24.7114 73.9363 73.9363 139.277 106.607 384.637 295.048 474.226 474.226 565.011 565.011 574 574 590.971>
Fore
400 600 m 1xf6
 367 636 333 650 308 650 c 0
 206 650 201 516 200 449 c 0
 200 429 202 416 202 391 c 1
 315 391 l 1
 315 369 l 1
 202 369 l 1xf6
 208 47 l 17
 208 30 259.5 18 285 18 c 1
 285 0 l 1
 246.5 3 199.5 4.5 154.125 4.5 c 0
 108.75 4.5 65 3 33 0 c 1
 33 18 l 1
 73 18 115.5 30 117 47 c 9xfa
 121 369 l 1
 39 369 l 1
 39 391 l 1
 121 391 l 1
 120.891 395.381 120.835 399.804 120.835 404.26 c 0
 120.835 522.878 160.648 665 311 665 c 0
 342 665 398 644 429 621 c 1
 453 624 456 633 490 642 c 1
 487.01 574.346 486.115 526.671 486.115 473.282 c 0
 486.115 393.751 488.1 301.542 488.1 111.725 c 0
 488.1 88.0559 488.069 62.8691 488 36 c 1
 491 20 533 20 556 16 c 1
 556 0 l 1
 524.862 3.89231 487.925 5.35313 452.713 5.35313 c 0
 406.506 5.35313 363.268 2.8376 340 0 c 1
 340 16 l 1
 363 17 404 26 406 42 c 0
 408.5 110.5 409.75 204.75 409.75 305 c 0
 409.75 405.25 408.5 505.5 406 574 c 0
 406 581 402 592 400 600 c 1xf6
EndSplineSet
LCarets2: 1 0 
Ligature2: "'liga' Standard Ligatures lookup 0 subtable" f l
EndChar
StartChar: quotesinglbase
Encoding: 8218 8218 167
Width: 249
Flags: W
Validated: 1
HStem: -13 147<78.5769 145.013>
VStem: 56 149<7.57877 107.2>
Fore
124 -13 m 0
 84 -13 56 24 56 61 c 0
 56 109.042 99 134 129 134 c 0
 159 134 205 105.037 205 51 c 0
 205 -31.5 139 -91 92 -97 c 1
 88.5 -91 84 -82 84 -82 c 1
 105 -73.5 163 -34 166 2 c 1
 150 -8 143.105 -13 124 -13 c 0
EndSplineSet
EndChar
StartChar: quotedblbase
Encoding: 8222 8222 168
Width: 456
Flags: W
Validated: 1
HStem: -12 147<74.5769 141.013 275.577 342.013>
VStem: 52 149<8.57877 108.2> 253 149<8.57877 108.2>
Fore
120 -12 m 4
 80 -12 52 25 52 62 c 4
 52 110.042 95 135 125 135 c 4
 155 135 201 106.037 201 52 c 4
 201 -30.5 135 -90 88 -96 c 5
 84.5 -90 80 -81 80 -81 c 5
 101 -72.5 159 -33 162 3 c 5
 146 -7 139.105 -12 120 -12 c 4
321 -12 m 4
 281 -12 253 25 253 62 c 4
 253 110.042 296 135 326 135 c 4
 356 135 402 106.037 402 52 c 4
 402 -30.5 336 -90 289 -96 c 5
 285.5 -90 281 -81 281 -81 c 5
 302 -72.5 360 -33 363 3 c 5
 347 -7 340.105 -12 321 -12 c 4
EndSplineSet
EndChar
StartChar: dotlessi
Encoding: 305 305 185
Width: 256
Flags: W
Validated: 1
HStem: 0 16<39 79.7297 205.451 247> 374 16<39 78.2188>
VStem: 101 80<20.6161 206.584 206.584 364>
Fore
181 412 m 1
 179 243 179 314 179 36 c 1
 183 17 230 16 247 16 c 1
 247 0 l 1
 222.206 2.1101 181.829 3.38535 140.694 3.38535 c 0
 103.853 3.38535 66.4035 2.36237 39 0 c 1
 39 16 l 1
 65 17 98 17 101 36 c 1
 101 364 l 1
 77 372 67 374 39 374 c 1
 39 390 l 5
 88 392 143 399 181 412 c 1
EndSplineSet
EndChar
StartChar: circumflex
Encoding: 710 710 186
Width: 412
Flags: W
Validated: 1
HStem: 439 156<209 316 209 209>
VStem: 74 255<447 450 447 447>
Fore
74 447 m 5
 209 595 l 5
 329 450 l 5
 316 439 l 5
 206 540 l 5
 88 439 l 5
 74 447 l 5
EndSplineSet
EndChar
StartChar: aogonek
Encoding: 261 261 200
Width: 448
Flags: W
HStem: -222 24<284.39 370.462> -9 44<152.783 234.452> -7 32<344.25 427.5> -7 411<193 230 169 217 217 252.1> 386 18<162.613 267.814>
VStem: 50 84<54.0697 163.497> 68 100.004<261.414 324.681> 192 77<-184.727 -74.0426> 290 80<92 167.045 167.045 207 221 256.1 211.573 338.989> 442 15<22.1442 74.5346>
Fore
192 -131 m 0x81c0
 192 -75 252 -35 279 -23 c 0
 298.378 -14.3877 342.715 3.8916 361.938 3.8916 c 0
 367.038 3.8916 370.371 -2.97304 371 -5 c 1
 353.065 -13.667 269 -58 269 -120 c 0
 269 -181 299 -198 325 -198 c 0
 359 -198 395.504 -155.786 397.006 -128.997 c 1
 399.672 -131.664 416 -137 421 -142 c 1
 409 -175 371 -222 308 -222 c 0
 236 -222 192 -183 192 -131 c 0x81c0
EndSplineSet
Refer: 75 97 N 1 0 0 1 0 0 2
EndChar
StartChar: eogonek
Encoding: 281 281 214
Width: 432
Flags: W
HStem: -222 24<204.39 290.462> -23.8385 20G<263.258 278.974> -17 24<198.4 319.936> 212 15<147 323> 379 18<186.988 287.811>
VStem: 50 96<82.1859 212 227 292.585> 112 77<-184.727 -73.6471> 324.196 87.0469<228.273 270.124 264.383 275.865 275.865 277 308 322.98>
Fore
112 -131 m 0xdb
 112 -75 172 -35 199 -23 c 0
 219.6 -13.8445 250.054 -3.83848 276.462 -3.83848 c 0
 281.486 -3.83848 286.364 -4.20073 291 -5 c 1
 274 -16 189 -66 189 -120 c 0
 189 -181 219 -198 245 -198 c 0
 279 -198 315.504 -155.786 317.006 -128.997 c 1
 319.672 -131.664 336 -137 341 -142 c 1
 329 -175 291 -222 228 -222 c 0
 156 -222 112 -183 112 -131 c 0xdb
EndSplineSet
Refer: 79 101 N 1 0 0 1 0 0 2
EndChar
StartChar: iogonek
Encoding: 303 303 236
Width: 256
Flags: W
HStem: -222 24<127.39 213.462> 0 16<69 109.73 235.451 277> 374 16<69 108.219> 512 114<126.212 211.932>
VStem: 35 77<-184.727 -72.1814> 112 114<526.121 612.034> 131 80<20.6161 206.584 206.584 364>
Fore
35 -131 m 0xf8
 35 -75 92.4625 -31.709 120 -21 c 0
 134.876 -15.215 155.436 -5.29199 177 0.15918 c 0
 195.479 4.83046 213.955 7.32799 226.091 7.32799 c 0
 234.066 7.32799 239.302 6.24929 240 4 c 1
 232.208 0.234375 195.452 -13.6766 168.786 -31 c 0
 138 -51 112 -83 112 -120 c 0
 112 -181 142 -198 168 -198 c 0
 202 -198 238.504 -155.786 240.006 -128.997 c 1
 242.672 -131.664 259 -137 264 -142 c 1
 252 -175 214 -222 151 -222 c 0
 79 -222 35 -183 35 -131 c 0xf8
EndSplineSet
Refer: 83 105 S 1 0 0 1 0 0 2
EndChar
StartChar: jcircumflex
Encoding: 309 309 241
Width: 280
Flags: W
Validated: 1
HStem: -204 29<18.0562 84.0071> 374 16<46 77.2215> 439 156<150 257 150 150>
VStem: -61 97<-124.585 -73.3337> 15 255<447 450 447 447> 108 80<-71.7976 180.77 180.77 364>
Fore
188 412 m 1xf4
 186 243 186 264 186 -14 c 0
 186 -134 92 -204 36 -204 c 0
 0 -204 -61 -179 -61 -135 c 0
 -61 -80 -33 -61 -6 -61 c 0
 19 -61 36 -84 36 -105 c 0
 36 -122 28 -145 5 -151 c 1
 10 -167 32 -175 47 -175 c 0
 64 -175 87 -173 101 -147 c 0
 107 -136 108 -38 108 -14 c 2
 108 364 l 1
 86 372 71 370 46 374 c 1
 46 390 l 1
 95 390 147.5 402.5 188 412 c 1xf4
EndSplineSet
Refer: 186 710 N 1 0 0 1 -59 0 2
EndChar
StartChar: kgreenlandic
Encoding: 312 312 248
Width: 542
Flags: W
Validated: 1
HStem: 0 16<48 69.7595 241.287 266 451.469 509> 365 21<288 309.263> 374 16<48 88.6631> 380 20<189.046 199.5 288 452>
VStem: 123.506 74.494<56.6408 176 201.202 277.622 277.622 283.559 283.559 354>
Fore
212 192 m 1xc8
 198 176 l 1
 198 98 198 143 198 39 c 0
 198 25.3333 249 17 266 16 c 1
 266 0 l 1
 240.014 2.36237 202.196 3.38535 163.728 3.38535 c 0
 120.777 3.38535 77.0139 2.1101 48 0 c 1
 48 16 l 1
 68 17 115.333 29.333 118 39 c 0
 121.095 50.2199 123.506 127.512 123.506 182.599 c 0
 123.506 189.603 123.467 196.249 123.385 202.353 c 0
 123.385 244.477 122.362 287.854 120 354 c 1
 109 371 81 373 48 374 c 1
 48 390 l 1xa8
 99.3333 390 178.092 394.811 200 400 c 1x98
 199 295 197 201 197 201 c 1
 295 313 l 2
 300.578 319.693 309.267 333.542 309.267 345.349 c 0
 309.267 354.711 303.805 362.789 287 365 c 1
 287.333 371.333 287 377 288 386 c 1
 452 386 l 1
 452 367 l 1
 432 365 368 356 338 328 c 2
 260 232 l 1
 328 162 327.83 156.762 399 81 c 0
 445.5 31.5 478.5 12 509 12 c 1
 509 -2 l 1
 374 -4 l 1
 348 44 262 136 212 192 c 1xc8
EndSplineSet
EndChar
StartChar: uogonek
Encoding: 371 371 268
Width: 542
Flags: W
HStem: -222 24<368.39 454.462> -22.1084 20G<436.326 448.488> -15 411<201 391 234.503 357.626> -11 28<218.287 304.244> 4 12<484.815 524> 370 16<60 103.108 328 365.563>
VStem: 60 464<16 386 419.503 542.626> 118 81<33.9313 127 127 362> 276 77<-184.727 -74.2641> 386 78<144 177.503 177.503 300.626>
Fore
276 -131 m 0xc080
 276 -75 336 -35 363 -23 c 0
 382.378 -14.3877 426.714 -2.1084 445.938 -2.1084 c 0
 451.038 -2.1084 454.371 -2.97266 455 -5 c 1
 437.064 -13.667 353 -64.5 353 -120 c 0
 353 -181 383 -198 409 -198 c 0
 443 -198 479.504 -155.786 481.006 -128.997 c 1
 483.672 -131.664 500 -137 505 -142 c 1
 493 -175 455 -222 392 -222 c 0
 320 -222 276 -183 276 -131 c 0xc080
EndSplineSet
Refer: 95 117 N 1 0 0 1 0 0 2
EndChar
StartChar: Scedilla
Encoding: 350 350 292
Width: 574
Flags: W
Validated: 5
HStem: -188 187<287 306 239 284 284 284> -188 21<241 320.291> -85 33<287 328.232> -15 24<191.387 367.673> -1 178<83 102 81 521 83 83> 619 19<231.187 375.149>
VStem: 105 77<451.663 558.726> 239 136 331.102 43.898<-147.16 -91.7949> 418 103<78.4964 201.085> 453 19<434 540.106>
Fore
284 -1 m 25x8680
 306 -2 l 25
 287 -52 l 17
 363 -52 375 -72.3662 375 -103 c 0x2680
 375 -143 320 -188 239 -188 c 9x87
 241 -167 l 17
 297.617 -167 331.102 -157.376 331.102 -114.657 c 0
 331.102 -87 281.5 -85 248 -85 c 9x6680
 284 -1 l 25x8680
EndSplineSet
Refer: 61 83 N 1 0 0 1 0 0 2
EndChar
StartChar: scedilla
Encoding: 351 351 293
Width: 390
Flags: W
HStem: -188 187<191 210 143 188 188 188> -188 21<145 224.291> -85 33<191 232.232> -13 19<131.144 263.466> 394 16<151.559 268.528>
VStem: 60 16<66.94 133> 60 296<82.5 135 119 135 135 135> 66 68<280.399 356.206> 143 136 235.102 43.8984<-147.16 -91.795> 286 70<36.1484 122.344> 306 17<278 352.146 372 401>
Fore
188 -1 m 25x8840
 210 -2 l 25
 191 -52 l 17
 267 -52 279 -72.3662 279 -103 c 0x2840
 279 -143 224 -188 143 -188 c 9x8880
 145 -167 l 17
 201.617 -167 235.102 -157.376 235.102 -114.657 c 0
 235.102 -87 185.5 -85 152 -85 c 9x6840
 188 -1 l 25x8840
EndSplineSet
Refer: 93 115 N 1 0 0 1 0 0 2
EndChar
StartChar: hungarumlaut
Encoding: 733 733 307
Width: 449
Flags: W
Validated: 1
HStem: 421 202<120 211 211 211>
VStem: 104 268<434 590 434 434>
Fore
104 434 m 1
 211 623 l 1
 256 590 l 1
 120 421 l 1
 104 434 l 1
220 434 m 1
 327 623 l 1
 372 590 l 1
 236 421 l 1
 220 434 l 1
EndSplineSet
EndChar
StartChar: uniFB00
Encoding: 64256 64256 308
Width: 570
Flags: W
Validated: 1
HStem: 0 18<33 111.577 241.23 318.842 488.15 525> 369 22<39 121 202 361 442 535> 640 15<238.965 376.628 473.957 594.408>
VStem: 121 81<27.7505 207.5 207.5 207.5 207.5 369 391 399.152 399.152 448.068> 357 91<25.8043 207.5 207.5 234.417> 360.797 81.203<180.583 369 391 399.152 399.152 420.115 420.115 458.634 428.893 532.243> 569 101<516.038 584.805>
Fore
33 0 m 1xfa
 33 18 l 1
 70.5 21 113 25 117 46 c 1
 121 369 l 1
 39 369 l 1
 39 391 l 1
 121 391 l 1
 120.863 396.47 120.797 401.908 120.797 407.301 c 0
 120.797 480.778 133.162 545.983 149 573 c 0
 166 602 215 655 301 655 c 0
 335 655 381 645 413 606 c 1
 436 631 472 655 531 655 c 0
 581 655 670 625 670 570 c 0
 670 543 656 503 614 503 c 0
 586 503 569 530 569 550 c 0
 569 580 605 595 605 595 c 1
 603 630 560 640 528 640 c 0
 488 640 466 615 454 588 c 0
 441.2 559.2 439.92 501.6 439.92 468.448 c 0
 439.92 460.16 440 453.4 440 449 c 0
 440 429 442 416 442 391 c 1
 535 391 l 1
 535 369 l 1
 442 369 l 1xf6
 448 46 l 17
 449.132 21.4968 499.5 19.5 525 18 c 1
 525 0 l 1
 450.941 2.19434 350.7 3.78678 253.003 3.78678 c 0
 172.611 3.78678 93.9412 2.7085 33 0 c 1xfa
202 369 m 1
 208 46 l 17
 211 24 245.705 17 273 17 c 0
 297 17 352 18 357 46 c 1xfa
 361 369 l 1
 202 369 l 1
298 640 m 0
 258 640 226 615 214 588 c 0
 201.2 559.2 199.92 501.6 199.92 468.448 c 0
 199.92 460.16 200 453.4 200 449 c 0
 200 429 202 416 202 391 c 1
 361 391 l 1
 360.863 396.47 360.797 401.908 360.797 407.301 c 0xf6
 360.797 480.778 373.162 545.983 389 573 c 0
 392 579 397 586 402 593 c 1
 391 623 327 640 298 640 c 0
EndSplineSet
LCarets2: 1 0 
Ligature2: "'liga' Standard Ligatures lookup 0 subtable" f f
EndChar
StartChar: uniFB03
Encoding: 64259 64259 309
Width: 804
Flags: W
Validated: 1
HStem: 0 18<33 111.577 242.808 313.536 494.672 525 564 604.844 743.849 772> 369 22<39 121 202 361 442 621.412> 650 15<240.213 364.818 484.799 613.761>
VStem: 120.797 79.203<391.71 558.999> 121 81<27.6162 206.5 206.5 206.5 206.5 369 391 399.152 399.152 448.068> 357 91<27.5461 44 44 234> 361 81<180 206.5 206.5 369 391 403.403 403.403 420.115 411.759 517.059> 599 101<516.038 585.053> 626 80<24.6141 209.681 209.681 364>
Fore
700 570 m 0xf1
 700 543 686 503 644 503 c 0
 616 503 599 530 599 550 c 0xf1
 599 580 635 595 635 595 c 1
 633 630 580 650 548 650 c 0
 437 650 442 525 440 449 c 0
 440 429 442 416 442 391 c 1
 626 391 l 2
 655 395 684 404 706 412 c 1
 704 243 704 320 704 42 c 1
 708 23 754.5 16.5 772 16 c 1
 772 0 l 1
 747.206 2.1101 706.829 3.38535 665.694 3.38535 c 0
 628.853 3.38535 591.404 2.36237 564 0 c 1
 564 16 l 1
 590 17 625.5 27 626 42 c 1
 626 364 l 1
 620 366 615 368 610 369 c 1
 442 369 l 1xe280
 448 45 l 17
 450 25.5 499.5 19.5 525 18 c 1
 525 0 l 1
 450.941 2.19434 350.7 3.78678 253.003 3.78678 c 0
 172.611 3.78678 93.9412 2.7085 33 0 c 1
 33 18 l 1
 76.3956 18.4885 112.5 28.5 117 44 c 1
 121 369 l 1
 39 369 l 1
 39 391 l 1
 121 391 l 1xec
 120.863 396.47 120.797 401.908 120.797 407.301 c 0
 120.797 480.778 133.162 545.983 149 573 c 0
 166 602 215 665 301 665 c 0
 335 665 381 645 413 606 c 1
 436 631 492 665 551 665 c 0
 601 665 700 625 700 570 c 0xf1
402 593 m 1
 391 623 327 650 298 650 c 0
 197 650 201 516 200 449 c 0xf2
 200 429 202 416 202 391 c 1
 361 391 l 1xea
 360.745 398.9 360.588 407.223 360.588 415.84 c 0
 360.588 474.842 367.97 547.626 402 593 c 1
361 369 m 1
 202 369 l 25
 208 44 l 17
 210 25.5 246.923 17 273 17 c 0
 297 17 351 21 357 44 c 1xec
 361 369 l 1
EndSplineSet
LCarets2: 2 0 0 
Ligature2: "'liga' Standard Ligatures lookup 0 subtable" ff i
Ligature2: "'liga' Standard Ligatures lookup 0 subtable" f f i
EndChar
StartChar: guillemotleft
Encoding: 171 171 310
Width: 492
Flags: W
Validated: 1
HStem: 19.9004 351.2<438.1 446.9 446.9 446.9>
VStem: 57.0996 389.8<178.7 371.1 178.7 178.7>
Fore
446.9 371.1 m 5
 446.9 354.3 l 5
 299.5 196.3 l 5
 299.5 182.7 l 5
 438.1 41.5 l 5
 438.1 19.9004 l 5
 227.5 178.7 l 5
 227.5 204.3 l 5
 446.9 371.1 l 5
318.7 371.1 m 5
 318.7 354.3 l 5
 144.3 196.3 l 5
 144.3 182.7 l 5
 309.9 41.5 l 5
 309.9 19.9004 l 5
 57.0996 178.7 l 5
 57.0996 204.3 l 5
 318.7 371.1 l 5
EndSplineSet
EndChar
StartChar: guillemotright
Encoding: 187 187 311
Width: 492
Flags: W
Validated: 1
HStem: 19.9004 351.2<57.0996 65.9004 57.0996 57.0996>
VStem: 57.0996 389.8<204.3 371.1 371.1 371.1>
Fore
57.0996 371.1 m 1
 276.5 204.3 l 1
 276.5 178.7 l 1
 65.9004 19.9004 l 1
 65.9004 41.5 l 1
 204.5 182.7 l 1
 204.5 196.3 l 1
 57.0996 354.3 l 1
 57.0996 371.1 l 1
185.3 371.1 m 1
 446.9 204.3 l 1
 446.9 178.7 l 1
 194.1 19.9004 l 1
 194.1 41.5 l 1
 359.7 182.7 l 1
 359.7 196.3 l 1
 185.3 354.3 l 1
 185.3 371.1 l 1
EndSplineSet
EndChar
StartChar: ring
Encoding: 730 730 312
Width: 212
Flags: W
Validated: 1
HStem: 478.5 25.2<78.0652 157.962> 616.9 25.6<76.6812 157.613>
VStem: 36.4004 32<512.606 609.115> 166 33.6<510.347 609.651>
Fore
118 642.5 m 0
 164.814 642.5 199.6 608.907 199.6 562.1 c 0
 199.6 515.285 164.808 478.5 118 478.5 c 0
 71.1855 478.5 36.4004 514.293 36.4004 561.1 c 0
 36.4004 607.914 71.1934 642.5 118 642.5 c 0
68.4004 560.1 m 0
 68.4004 523 91.5 503.7 118 503.7 c 0
 148.5 503.7 166 523 166 560.1 c 0
 166 595.5 148.5 616.9 116.8 616.9 c 0
 88 616.9 68.4004 596.5 68.4004 560.1 c 0
EndSplineSet
EndChar
StartChar: caron
Encoding: 711 711 313
Width: 412
Flags: W
Validated: 1
HStem: 439 156<84 194 84 84>
VStem: 71 253<582 584 584 584>
Fore
324 582 m 5
 194 439 l 5
 71 584 l 5
 84 595 l 5
 198 491 l 5
 312 595 l 5
 324 582 l 5
EndSplineSet
EndChar
StartChar: tilde
Encoding: 732 732 314
Width: 250
VWidth: 0
Flags: W
Validated: 1
HStem: 253.4 105.2<228.719 237 71.7998 173.519 228.719 228.719> 253.4 47<133.498 219.65> 268.334 91.803<6 244 -85.1194 16.5998> 317.994 42.143<33.0116 103.721>
VStem: 6 12.1191<268.804 306.818> 228.719 15.281<329.271 358.6>
Fore
18.1191 268.334 m 0x2c
 6 268.804 l 1
 6 298.204 31.2002 360.137 71.7998 360.137 c 0x2c
 114.719 360.137 132.4 300.4 179.519 300.4 c 0x4c
 224.8 300.4 228.719 331.067 228.719 358.6 c 1
 235.281 358.6 237.919 358.6 244 358.6 c 1
 244 332.7 237 253.4 173.519 253.4 c 0x8c
 119.4 253.4 104 317.994 67.5996 317.994 c 0x1c
 41 317.994 18.1191 288.866 18.1191 268.334 c 0x2c
EndSplineSet
EndChar
